<svg id="Layer_1" data-name="Layer 1" xmlns="http://www.w3.org/2000/svg" viewBox="0 0 277 220.12"><defs><style>.cls-1{fill:#eff9fc;stroke:#64c2e5;}.cls-1,.cls-10,.cls-4,.cls-7{stroke-miterlimit:10;}.cls-2{fill:#449fd8;}.cls-3{fill:#4abb8a;}.cls-4{fill:#eff9f5;}.cls-4,.cls-6{stroke:#4abb8a;}.cls-5{fill:#1c435b;}.cls-10,.cls-6,.cls-7{fill:none;}.cls-6{stroke-linecap:round;stroke-linejoin:round;stroke-width:3px;}.cls-7{stroke:#1c425b;}.cls-8{fill:#1c425b;}.cls-9{fill:#ddd;}.cls-10{stroke:#449fd8;}</style></defs><title>Operator-scale</title><rect class="cls-1" x="193.27" y="88.29" width="77.58" height="55.51" rx="3" ry="3"/><rect class="cls-1" x="190.27" y="85.29" width="77.58" height="55.51" rx="3" ry="3"/><rect class="cls-1" x="6.27" y="112.29" width="130.58" height="60.51" rx="3" ry="3"/><path class="cls-2" d="M44.08,128.13a3.51,3.51,0,0,1,.23-1.3,3,3,0,0,1,.61-1,2.7,2.7,0,0,1,.87-.61,2.49,2.49,0,0,1,1-.22,2.57,2.57,0,0,1,1.06.2,2.06,2.06,0,0,1,.76.58,2.56,2.56,0,0,1,.46.89,3.9,3.9,0,0,1,.16,1.13,2.78,2.78,0,0,1-.06.65H45.43a1.94,1.94,0,0,0,.56,1.24,1.66,1.66,0,0,0,1.18.43,2.17,2.17,0,0,0,.71-.11,3.18,3.18,0,0,0,.65-.32l.47.86a4.21,4.21,0,0,1-.94.46,3.25,3.25,0,0,1-1.08.18,3,3,0,0,1-1.14-.21,2.71,2.71,0,0,1-.92-.61,2.77,2.77,0,0,1-.62-1A3.56,3.56,0,0,1,44.08,128.13ZM48,127.6a1.83,1.83,0,0,0-.29-1.1,1.06,1.06,0,0,0-.91-.4,1.29,1.29,0,0,0-.92.38,1.81,1.81,0,0,0-.49,1.12Z"/><path class="cls-2" d="M50.56,126.27h-.84v-1l.91-.06.17-1.61H52v1.61h1.5v1.09H52v2.81q0,1,.83,1a1.44,1.44,0,0,0,.32,0,1.46,1.46,0,0,0,.29-.1l.24,1a4.51,4.51,0,0,1-.55.15,3.11,3.11,0,0,1-.65.07,2.17,2.17,0,0,1-.87-.16,1.48,1.48,0,0,1-.58-.44,1.81,1.81,0,0,1-.32-.67,3.47,3.47,0,0,1-.1-.87Z"/><path class="cls-2" d="M54.19,128.13a3.37,3.37,0,0,1,.24-1.31,2.87,2.87,0,0,1,.65-1,2.82,2.82,0,0,1,.94-.61,3,3,0,0,1,1.12-.21,2.36,2.36,0,0,1,1,.2,2.65,2.65,0,0,1,.73.49l-.66.88a2.19,2.19,0,0,0-.48-.32,1.19,1.19,0,0,0-.52-.11,1.44,1.44,0,0,0-1.16.53,2.54,2.54,0,0,0,0,2.86,1.4,1.4,0,0,0,1.13.53,1.5,1.5,0,0,0,.67-.15,2.64,2.64,0,0,0,.55-.35l.58.88A3,3,0,0,1,58,131a2.81,2.81,0,0,1-1,.19,3.06,3.06,0,0,1-1.12-.2,2.55,2.55,0,0,1-.91-.6,2.77,2.77,0,0,1-.6-1A3.72,3.72,0,0,1,54.19,128.13Z"/><path class="cls-2" d="M59.47,128.13a3.78,3.78,0,0,1,.21-1.3,3,3,0,0,1,.56-1,2.5,2.5,0,0,1,.8-.61A2.13,2.13,0,0,1,62,125a1.91,1.91,0,0,1,.85.17,3.41,3.41,0,0,1,.7.47l0-.95V122.6h1.38v8.47H63.7l-.1-.64h0a3.15,3.15,0,0,1-.76.55,1.92,1.92,0,0,1-.91.23,2.15,2.15,0,0,1-1.77-.81A3.53,3.53,0,0,1,59.47,128.13Zm1.43,0a2.57,2.57,0,0,0,.34,1.46,1.13,1.13,0,0,0,1,.5,1.64,1.64,0,0,0,1.24-.66v-2.75a2,2,0,0,0-.61-.38,1.71,1.71,0,0,0-.59-.11,1.2,1.2,0,0,0-1,.5A2.29,2.29,0,0,0,60.9,128.12Z"/><path class="cls-2" d="M72.22,131.21a3.44,3.44,0,0,1-1.4-.28,3,3,0,0,1-1.09-.82,3.82,3.82,0,0,1-.71-1.29,5.42,5.42,0,0,1-.25-1.72,5.32,5.32,0,0,1,.25-1.7,3.63,3.63,0,0,1,.71-1.27,3.07,3.07,0,0,1,1.09-.79,3.71,3.71,0,0,1,2.81,0,3.12,3.12,0,0,1,1.1.79,3.58,3.58,0,0,1,.71,1.27,5.32,5.32,0,0,1,.25,1.7,5.42,5.42,0,0,1-.25,1.72,3.77,3.77,0,0,1-.71,1.29,3.09,3.09,0,0,1-1.1.82A3.44,3.44,0,0,1,72.22,131.21Zm0-1.21a1.71,1.71,0,0,0,.84-.2,1.86,1.86,0,0,0,.64-.58,2.89,2.89,0,0,0,.41-.91,4.56,4.56,0,0,0,.14-1.19,3.46,3.46,0,0,0-.55-2.07,1.84,1.84,0,0,0-3,0,3.46,3.46,0,0,0-.55,2.07,4.6,4.6,0,0,0,.14,1.19,2.89,2.89,0,0,0,.41.91,1.86,1.86,0,0,0,.64.58A1.71,1.71,0,0,0,72.22,130Z"/><path class="cls-2" d="M78.52,131.55v1.85H77.14v-8.22h1.14l.1.62h0a4.17,4.17,0,0,1,.83-.54,2.09,2.09,0,0,1,.95-.23,2.19,2.19,0,0,1,1,.21,2,2,0,0,1,.73.61,2.81,2.81,0,0,1,.46.95,4.53,4.53,0,0,1,.16,1.24,4.05,4.05,0,0,1-.21,1.35,3.06,3.06,0,0,1-.56,1,2.42,2.42,0,0,1-.8.62,2.18,2.18,0,0,1-.95.22,1.9,1.9,0,0,1-.77-.17,2.92,2.92,0,0,1-.74-.48Zm0-2a2.06,2.06,0,0,0,.62.38,1.68,1.68,0,0,0,.56.11,1.2,1.2,0,0,0,1-.51,2.44,2.44,0,0,0,.4-1.52,2.67,2.67,0,0,0-.3-1.38,1.05,1.05,0,0,0-1-.49,1.92,1.92,0,0,0-1.3.66Z"/><path class="cls-2" d="M83.53,128.13a3.51,3.51,0,0,1,.23-1.3,3,3,0,0,1,.61-1,2.7,2.7,0,0,1,.87-.61,2.49,2.49,0,0,1,1-.22,2.57,2.57,0,0,1,1.06.2,2.06,2.06,0,0,1,.76.58,2.56,2.56,0,0,1,.46.89,3.9,3.9,0,0,1,.16,1.13,2.78,2.78,0,0,1-.06.65H84.87a1.94,1.94,0,0,0,.56,1.24,1.66,1.66,0,0,0,1.18.43,2.17,2.17,0,0,0,.71-.11,3.18,3.18,0,0,0,.65-.32l.47.86a4.21,4.21,0,0,1-.94.46,3.25,3.25,0,0,1-1.08.18,3,3,0,0,1-1.14-.21,2.71,2.71,0,0,1-.92-.61,2.77,2.77,0,0,1-.62-1A3.56,3.56,0,0,1,83.53,128.13Zm3.95-.53a1.83,1.83,0,0,0-.29-1.1,1.06,1.06,0,0,0-.91-.4,1.29,1.29,0,0,0-.92.38,1.81,1.81,0,0,0-.49,1.12Z"/><path class="cls-2" d="M90,125.18h1.14l.1,1h0a2.47,2.47,0,0,1,.76-.88,1.59,1.59,0,0,1,.91-.31,1.58,1.58,0,0,1,.67.12l-.24,1.2-.29-.07-.32,0a1.29,1.29,0,0,0-.73.27,2.08,2.08,0,0,0-.66.94v3.6H90Z"/><path class="cls-2" d="M93.9,129.48a1.63,1.63,0,0,1,.83-1.46,6.59,6.59,0,0,1,2.64-.72,1.58,1.58,0,0,0-.06-.44,1.09,1.09,0,0,0-.19-.37.86.86,0,0,0-.32-.25,1.22,1.22,0,0,0-.5-.09,2.26,2.26,0,0,0-.86.17,5.16,5.16,0,0,0-.8.41l-.5-.92a5.92,5.92,0,0,1,1.1-.54,3.7,3.7,0,0,1,1.31-.23,2,2,0,0,1,1.66.65,2.9,2.9,0,0,1,.54,1.89v3.49H97.62l-.11-.65h0a4.32,4.32,0,0,1-.85.56,2.13,2.13,0,0,1-1,.23,1.73,1.73,0,0,1-1.27-.47A1.67,1.67,0,0,1,93.9,129.48Zm1.34-.11a.68.68,0,0,0,.23.58,1,1,0,0,0,.61.18,1.34,1.34,0,0,0,.66-.17,3.12,3.12,0,0,0,.62-.48v-1.32a6.25,6.25,0,0,0-1,.19,2.8,2.8,0,0,0-.65.27,1,1,0,0,0-.35.34A.82.82,0,0,0,95.24,129.38Z"/><path class="cls-2" d="M100.63,126.27h-.84v-1l.91-.06.17-1.61H102v1.61h1.5v1.09H102v2.81q0,1,.83,1a1.44,1.44,0,0,0,.32,0,1.46,1.46,0,0,0,.29-.1l.24,1a4.51,4.51,0,0,1-.55.15,3.11,3.11,0,0,1-.65.07,2.17,2.17,0,0,1-.87-.16,1.48,1.48,0,0,1-.58-.44,1.81,1.81,0,0,1-.32-.67,3.47,3.47,0,0,1-.1-.87Z"/><path class="cls-2" d="M104.25,128.13a3.54,3.54,0,0,1,.23-1.31,2.88,2.88,0,0,1,.62-1,2.72,2.72,0,0,1,2-.82,2.77,2.77,0,0,1,1.06.21,2.63,2.63,0,0,1,.89.61,3,3,0,0,1,.62,1,3.78,3.78,0,0,1,0,2.62,3,3,0,0,1-.62,1,2.57,2.57,0,0,1-.89.6,2.83,2.83,0,0,1-1.06.2A2.79,2.79,0,0,1,106,131a2.64,2.64,0,0,1-.89-.6,2.88,2.88,0,0,1-.62-1A3.55,3.55,0,0,1,104.25,128.13Zm1.42,0a2.47,2.47,0,0,0,.37,1.42,1.16,1.16,0,0,0,1,.53,1.18,1.18,0,0,0,1-.53,2.93,2.93,0,0,0,0-2.86,1.18,1.18,0,0,0-1-.53,1.16,1.16,0,0,0-1,.53A2.5,2.5,0,0,0,105.67,128.13Z"/><path class="cls-2" d="M111.22,125.18h1.14l.1,1h0a2.47,2.47,0,0,1,.76-.88,1.59,1.59,0,0,1,.91-.31,1.58,1.58,0,0,1,.67.12l-.24,1.2-.29-.07-.32,0a1.29,1.29,0,0,0-.73.27,2.08,2.08,0,0,0-.66.94v3.6h-1.38Z"/><path class="cls-2" d="M37.54,143.72h.94l1,3,.25.79.25.78h0l.24-.78.24-.79,1-3h.89l-1.89,5.35H39.47Z"/><path class="cls-2" d="M43,146.41a3.22,3.22,0,0,1,.2-1.18,2.76,2.76,0,0,1,.54-.89,2.34,2.34,0,0,1,.76-.55,2.15,2.15,0,0,1,.89-.19,2.24,2.24,0,0,1,.91.18,1.77,1.77,0,0,1,.67.51,2.31,2.31,0,0,1,.41.79,3.47,3.47,0,0,1,.14,1,3,3,0,0,1,0,.5H43.9a2.12,2.12,0,0,0,.53,1.38,1.64,1.64,0,0,0,1.25.51,2.1,2.1,0,0,0,.71-.12,3.14,3.14,0,0,0,.62-.3l.32.59a4.54,4.54,0,0,1-.78.38,2.7,2.7,0,0,1-1,.17,2.63,2.63,0,0,1-1-.19,2.39,2.39,0,0,1-.81-.55,2.55,2.55,0,0,1-.54-.87A3.27,3.27,0,0,1,43,146.41Zm3.74-.41a2,2,0,0,0-.35-1.26,1.17,1.17,0,0,0-1-.43,1.31,1.31,0,0,0-.54.12,1.49,1.49,0,0,0-.47.33,1.75,1.75,0,0,0-.35.53,2.44,2.44,0,0,0-.18.72Z"/><path class="cls-2" d="M48.86,143.72h.75l.08,1h0a2.47,2.47,0,0,1,.67-.8,1.37,1.37,0,0,1,.85-.3,1.42,1.42,0,0,1,.57.11l-.18.79-.24-.07-.27,0a1.2,1.2,0,0,0-.71.28,2.19,2.19,0,0,0-.64,1v3.43h-.9Z"/><path class="cls-2" d="M52.43,147.86a3.6,3.6,0,0,0,.72.46,2,2,0,0,0,.85.18,1.13,1.13,0,0,0,.79-.24.77.77,0,0,0,.26-.59.61.61,0,0,0-.11-.36,1.07,1.07,0,0,0-.28-.27,2,2,0,0,0-.39-.2l-.44-.18-.57-.23a2.25,2.25,0,0,1-.51-.31,1.57,1.57,0,0,1-.37-.42,1.12,1.12,0,0,1-.14-.58,1.45,1.45,0,0,1,.13-.6,1.39,1.39,0,0,1,.36-.48,1.73,1.73,0,0,1,.58-.32,2.58,2.58,0,0,1,1.7.06,2.89,2.89,0,0,1,.73.43l-.43.57a2.85,2.85,0,0,0-.57-.34,1.57,1.57,0,0,0-.65-.13,1,1,0,0,0-.74.23.73.73,0,0,0-.24.54.54.54,0,0,0,.1.32.94.94,0,0,0,.26.24,2.15,2.15,0,0,0,.38.19l.45.17.58.23a2.18,2.18,0,0,1,.52.3,1.47,1.47,0,0,1,.38.45,1.29,1.29,0,0,1,.15.64,1.52,1.52,0,0,1-.13.62,1.47,1.47,0,0,1-.37.51,1.81,1.81,0,0,1-.62.35,2.6,2.6,0,0,1-.84.13,2.87,2.87,0,0,1-1.09-.21,3.38,3.38,0,0,1-.9-.53Z"/><path class="cls-2" d="M57.64,142.62a.63.63,0,0,1-.45-.17.58.58,0,0,1,0-.84.7.7,0,0,1,.89,0,.58.58,0,0,1,0,.84A.64.64,0,0,1,57.64,142.62Zm-.46,1.1h.9v5.35h-.9Z"/><path class="cls-2" d="M59.49,146.41a3.25,3.25,0,0,1,.2-1.19,2.7,2.7,0,0,1,.54-.89,2.28,2.28,0,0,1,.79-.55,2.47,2.47,0,0,1,1.88,0,2.28,2.28,0,0,1,.79.55,2.71,2.71,0,0,1,.54.89,3.29,3.29,0,0,1,.2,1.19,3.26,3.26,0,0,1-.2,1.18,2.65,2.65,0,0,1-.54.88,2.32,2.32,0,0,1-.79.54A2.47,2.47,0,0,1,61,149a2.32,2.32,0,0,1-.79-.54,2.63,2.63,0,0,1-.54-.88A3.22,3.22,0,0,1,59.49,146.41Zm.94,0a3,3,0,0,0,.11.84,2,2,0,0,0,.31.64,1.44,1.44,0,0,0,.49.42,1.4,1.4,0,0,0,1.25,0,1.44,1.44,0,0,0,.49-.42,2,2,0,0,0,.31-.64,3,3,0,0,0,.11-.84,3,3,0,0,0-.11-.84,2,2,0,0,0-.31-.65,1.42,1.42,0,0,0-.49-.42,1.39,1.39,0,0,0-1.25,0,1.42,1.42,0,0,0-.49.42,2,2,0,0,0-.31.65A3,3,0,0,0,60.42,146.41Z"/><path class="cls-2" d="M65.85,143.72h.75l.08.77h0a4.38,4.38,0,0,1,.81-.64,1.85,1.85,0,0,1,1-.26,1.44,1.44,0,0,1,1.24.53,2.61,2.61,0,0,1,.39,1.56v3.39h-.9V145.8a1.91,1.91,0,0,0-.24-1.09.89.89,0,0,0-.77-.34,1.32,1.32,0,0,0-.74.21,4.79,4.79,0,0,0-.73.62v3.87h-.9Z"/><path class="cls-2" d="M71.33,143.92h4.72v.68H71.33Zm0,2.34h4.72v.68H71.33Z"/><path class="cls-2" d="M77.18,147.62a3.6,3.6,0,0,0,.74.58,2,2,0,0,0,1.05.25,1.55,1.55,0,0,0,1-.35,1.17,1.17,0,0,0,.41-.94,1.39,1.39,0,0,0-.12-.57,1.1,1.1,0,0,0-.38-.45,2,2,0,0,0-.69-.29,4.82,4.82,0,0,0-1.06-.1v-.69a3.82,3.82,0,0,0,.94-.1,1.79,1.79,0,0,0,.62-.28,1,1,0,0,0,.33-.42,1.34,1.34,0,0,0,.1-.52,1,1,0,0,0-.33-.81,1.26,1.26,0,0,0-.88-.3,1.68,1.68,0,0,0-.81.2,3,3,0,0,0-.69.52L77,142.8a3.79,3.79,0,0,1,.9-.63,2.44,2.44,0,0,1,1.12-.25,2.83,2.83,0,0,1,.85.12,2,2,0,0,1,.67.35,1.53,1.53,0,0,1,.43.56,1.78,1.78,0,0,1,.15.76,1.53,1.53,0,0,1-.35,1,2.26,2.26,0,0,1-.92.63v0a2.5,2.5,0,0,1,.59.23,1.89,1.89,0,0,1,.48.37,1.62,1.62,0,0,1,.32.52,1.81,1.81,0,0,1,.12.66,1.89,1.89,0,0,1-.18.84,1.86,1.86,0,0,1-.5.63,2.23,2.23,0,0,1-.73.4,2.87,2.87,0,0,1-.9.14,3.33,3.33,0,0,1-.76-.08,3.16,3.16,0,0,1-.63-.22,2.69,2.69,0,0,1-.51-.31,3,3,0,0,1-.4-.37Z"/><path class="cls-2" d="M82.61,148.52a.69.69,0,0,1,.19-.51.64.64,0,0,1,.47-.19.62.62,0,0,1,.46.19.69.69,0,0,1,.19.51.66.66,0,0,1-.19.49.62.62,0,0,1-.46.19.64.64,0,0,1-.47-.19A.66.66,0,0,1,82.61,148.52Z"/><path class="cls-2" d="M87.37,149.2a1.86,1.86,0,0,1-1.66-.95,5.13,5.13,0,0,1-.59-2.72,5,5,0,0,1,.59-2.69,1.94,1.94,0,0,1,3.31,0,5,5,0,0,1,.59,2.69,5.13,5.13,0,0,1-.59,2.72A1.85,1.85,0,0,1,87.37,149.2Zm0-.73a1,1,0,0,0,.56-.17,1.37,1.37,0,0,0,.43-.53,3.28,3.28,0,0,0,.28-.91,7.64,7.64,0,0,0,.1-1.33,7.53,7.53,0,0,0-.1-1.32,3.12,3.12,0,0,0-.28-.9,1.34,1.34,0,0,0-.43-.51,1,1,0,0,0-.56-.17,1,1,0,0,0-.56.17,1.32,1.32,0,0,0-.43.51,3.15,3.15,0,0,0-.28.9,7.63,7.63,0,0,0-.1,1.32,4.93,4.93,0,0,0,.38,2.24A1.13,1.13,0,0,0,87.37,148.47Z"/><path class="cls-2" d="M90.82,148.52A.69.69,0,0,1,91,148a.64.64,0,0,1,.47-.19.62.62,0,0,1,.46.19.69.69,0,0,1,.19.51.66.66,0,0,1-.19.49.62.62,0,0,1-.46.19A.64.64,0,0,1,91,149,.66.66,0,0,1,90.82,148.52Z"/><path class="cls-2" d="M93.71,148.32h1.61v-5.17H94v-.58a5.4,5.4,0,0,0,.84-.21,3.35,3.35,0,0,0,.64-.3h.69v6.27h1.45v.75h-4Z"/><path class="cls-2" d="M99.05,147.62a3.6,3.6,0,0,0,.74.58,2,2,0,0,0,1.05.25,1.55,1.55,0,0,0,1-.35,1.17,1.17,0,0,0,.41-.94,1.39,1.39,0,0,0-.12-.57,1.1,1.1,0,0,0-.38-.45,2,2,0,0,0-.69-.29,4.82,4.82,0,0,0-1.06-.1v-.69a3.82,3.82,0,0,0,.94-.1,1.79,1.79,0,0,0,.62-.28,1,1,0,0,0,.33-.42,1.34,1.34,0,0,0,.1-.52,1,1,0,0,0-.33-.81,1.26,1.26,0,0,0-.88-.3,1.68,1.68,0,0,0-.81.2,3,3,0,0,0-.69.52l-.48-.57a3.79,3.79,0,0,1,.9-.63,2.44,2.44,0,0,1,1.12-.25,2.83,2.83,0,0,1,.85.12,2,2,0,0,1,.67.35,1.53,1.53,0,0,1,.43.56,1.78,1.78,0,0,1,.15.76,1.53,1.53,0,0,1-.35,1,2.26,2.26,0,0,1-.92.63v0a2.5,2.5,0,0,1,.59.23,1.89,1.89,0,0,1,.48.37,1.62,1.62,0,0,1,.32.52,1.81,1.81,0,0,1,.12.66,1.89,1.89,0,0,1-.18.84,1.86,1.86,0,0,1-.5.63,2.23,2.23,0,0,1-.73.4,2.87,2.87,0,0,1-.9.14,3.33,3.33,0,0,1-.76-.08,3.16,3.16,0,0,1-.63-.22,2.69,2.69,0,0,1-.51-.31,3,3,0,0,1-.4-.37Z"/><path class="cls-2" d="M57.22,161.06a3.6,3.6,0,0,0,.72.46,2,2,0,0,0,.85.18,1.13,1.13,0,0,0,.79-.24.77.77,0,0,0,.26-.59.61.61,0,0,0-.11-.36,1.07,1.07,0,0,0-.28-.27,2,2,0,0,0-.39-.2l-.44-.18-.57-.23a2.25,2.25,0,0,1-.51-.31,1.57,1.57,0,0,1-.37-.42,1.12,1.12,0,0,1-.14-.58,1.45,1.45,0,0,1,.13-.6,1.39,1.39,0,0,1,.36-.48,1.73,1.73,0,0,1,.58-.32,2.58,2.58,0,0,1,1.7.06,2.89,2.89,0,0,1,.73.43l-.43.57a2.85,2.85,0,0,0-.57-.34,1.57,1.57,0,0,0-.65-.13,1,1,0,0,0-.74.23.73.73,0,0,0-.24.54.54.54,0,0,0,.1.32.94.94,0,0,0,.26.24,2.15,2.15,0,0,0,.38.19l.45.17.58.23a2.18,2.18,0,0,1,.52.3,1.47,1.47,0,0,1,.38.45,1.29,1.29,0,0,1,.15.64,1.52,1.52,0,0,1-.13.62,1.47,1.47,0,0,1-.37.51,1.81,1.81,0,0,1-.62.35,2.6,2.6,0,0,1-.84.13,2.87,2.87,0,0,1-1.09-.21,3.38,3.38,0,0,1-.9-.53Z"/><path class="cls-2" d="M62.43,155.82a.63.63,0,0,1-.45-.17.58.58,0,0,1,0-.84.7.7,0,0,1,.89,0,.58.58,0,0,1,0,.84A.64.64,0,0,1,62.43,155.82Zm-.46,1.1h.9v5.35H62Z"/><path class="cls-2" d="M64.11,161.78l2.82-4.12H64.42v-.74h3.65v.48l-2.82,4.13h2.9v.74h-4Z"/><path class="cls-2" d="M68.84,159.61a3.22,3.22,0,0,1,.2-1.18,2.76,2.76,0,0,1,.54-.89,2.34,2.34,0,0,1,.76-.55,2.15,2.15,0,0,1,.89-.19,2.24,2.24,0,0,1,.91.18,1.77,1.77,0,0,1,.67.51,2.31,2.31,0,0,1,.41.79,3.47,3.47,0,0,1,.14,1,3,3,0,0,1,0,.5H69.73a2.12,2.12,0,0,0,.53,1.38,1.64,1.64,0,0,0,1.25.51,2.1,2.1,0,0,0,.71-.12,3.14,3.14,0,0,0,.62-.3l.32.59a4.54,4.54,0,0,1-.78.38,2.7,2.7,0,0,1-1,.17,2.63,2.63,0,0,1-1-.19,2.39,2.39,0,0,1-.81-.55,2.55,2.55,0,0,1-.54-.87A3.27,3.27,0,0,1,68.84,159.61Zm3.74-.41a2,2,0,0,0-.35-1.26,1.17,1.17,0,0,0-1-.43,1.31,1.31,0,0,0-.54.12,1.49,1.49,0,0,0-.47.33,1.75,1.75,0,0,0-.35.53,2.44,2.44,0,0,0-.18.72Z"/><path class="cls-2" d="M74.17,157.12h4.72v.68H74.17Zm0,2.34h4.72v.68H74.17Z"/><path class="cls-2" d="M80,160.82a3.6,3.6,0,0,0,.74.58,2,2,0,0,0,1.05.25,1.55,1.55,0,0,0,1-.35,1.17,1.17,0,0,0,.41-.94,1.39,1.39,0,0,0-.12-.57,1.1,1.1,0,0,0-.38-.45,2,2,0,0,0-.69-.29A4.82,4.82,0,0,0,81,159v-.69a3.82,3.82,0,0,0,.94-.1,1.79,1.79,0,0,0,.62-.28,1,1,0,0,0,.33-.42A1.34,1.34,0,0,0,83,157a1,1,0,0,0-.33-.81,1.26,1.26,0,0,0-.88-.3,1.68,1.68,0,0,0-.81.2,3,3,0,0,0-.69.52l-.48-.57a3.79,3.79,0,0,1,.9-.63,2.44,2.44,0,0,1,1.12-.25,2.83,2.83,0,0,1,.85.12,2,2,0,0,1,.67.35,1.53,1.53,0,0,1,.43.56,1.78,1.78,0,0,1,.15.76,1.53,1.53,0,0,1-.35,1,2.26,2.26,0,0,1-.92.63v0a2.5,2.5,0,0,1,.59.23,1.89,1.89,0,0,1,.48.37,1.62,1.62,0,0,1,.32.52,1.81,1.81,0,0,1,.12.66,1.89,1.89,0,0,1-.18.84,1.86,1.86,0,0,1-.5.63,2.23,2.23,0,0,1-.73.4,2.87,2.87,0,0,1-.9.14,3.33,3.33,0,0,1-.76-.08,3.16,3.16,0,0,1-.63-.22,2.69,2.69,0,0,1-.51-.31,3,3,0,0,1-.4-.37Z"/><rect class="cls-1" x="187.27" y="82.29" width="77.58" height="55.51" rx="3" ry="3"/><path class="cls-2" d="M203.85,101.47a3.51,3.51,0,0,1,.23-1.3,3,3,0,0,1,.61-1,2.7,2.7,0,0,1,.87-.61,2.49,2.49,0,0,1,1-.22,2.57,2.57,0,0,1,1.06.2,2.06,2.06,0,0,1,.76.58,2.56,2.56,0,0,1,.46.89,3.9,3.9,0,0,1,.16,1.13,2.78,2.78,0,0,1-.06.65H205.2a1.94,1.94,0,0,0,.56,1.24,1.66,1.66,0,0,0,1.18.43,2.17,2.17,0,0,0,.71-.11,3.18,3.18,0,0,0,.65-.32l.47.86a4.21,4.21,0,0,1-.94.46,3.25,3.25,0,0,1-1.08.18,3,3,0,0,1-1.14-.21,2.71,2.71,0,0,1-.92-.61,2.77,2.77,0,0,1-.62-1A3.56,3.56,0,0,1,203.85,101.47Zm3.95-.53a1.83,1.83,0,0,0-.29-1.1,1.06,1.06,0,0,0-.91-.4,1.29,1.29,0,0,0-.92.38,1.81,1.81,0,0,0-.49,1.12Z"/><path class="cls-2" d="M210.33,99.61h-.84v-1l.91-.06.17-1.61h1.15v1.61h1.5v1.09h-1.5v2.81q0,1,.83,1a1.44,1.44,0,0,0,.32,0,1.46,1.46,0,0,0,.29-.1l.24,1a4.51,4.51,0,0,1-.55.15,3.11,3.11,0,0,1-.65.07,2.17,2.17,0,0,1-.87-.16,1.48,1.48,0,0,1-.58-.44,1.81,1.81,0,0,1-.32-.67,3.47,3.47,0,0,1-.1-.87Z"/><path class="cls-2" d="M214,101.47a3.37,3.37,0,0,1,.24-1.31,2.87,2.87,0,0,1,.65-1,2.82,2.82,0,0,1,.94-.61,3,3,0,0,1,1.12-.21,2.36,2.36,0,0,1,1,.2,2.65,2.65,0,0,1,.73.49l-.66.88a2.19,2.19,0,0,0-.48-.32,1.19,1.19,0,0,0-.52-.11,1.44,1.44,0,0,0-1.16.53,2.54,2.54,0,0,0,0,2.86,1.4,1.4,0,0,0,1.13.53,1.5,1.5,0,0,0,.67-.15,2.64,2.64,0,0,0,.55-.35l.58.88a3,3,0,0,1-.92.56,2.81,2.81,0,0,1-1,.19,3.06,3.06,0,0,1-1.12-.2,2.55,2.55,0,0,1-.91-.6,2.77,2.77,0,0,1-.6-1A3.72,3.72,0,0,1,214,101.47Z"/><path class="cls-2" d="M219.24,101.47a3.78,3.78,0,0,1,.21-1.3,3,3,0,0,1,.56-1,2.5,2.5,0,0,1,.8-.61,2.13,2.13,0,0,1,.93-.22,1.91,1.91,0,0,1,.85.17,3.41,3.41,0,0,1,.7.47l0-.95V95.94h1.38v8.47h-1.14l-.1-.64h0a3.15,3.15,0,0,1-.76.55,1.92,1.92,0,0,1-.91.23,2.15,2.15,0,0,1-1.77-.81A3.53,3.53,0,0,1,219.24,101.47Zm1.43,0a2.57,2.57,0,0,0,.34,1.46,1.13,1.13,0,0,0,1,.5,1.64,1.64,0,0,0,1.24-.66V100a2,2,0,0,0-.61-.38,1.71,1.71,0,0,0-.59-.11,1.2,1.2,0,0,0-1,.5A2.29,2.29,0,0,0,220.67,101.46Z"/><path class="cls-2" d="M226,100.88h2.86v1H226Z"/><path class="cls-2" d="M232.43,104.55a2.18,2.18,0,0,1-1.9-1,5.28,5.28,0,0,1-.7-3,5.1,5.1,0,0,1,.7-2.93,2.31,2.31,0,0,1,3.79,0,5.11,5.11,0,0,1,.7,2.93,5.28,5.28,0,0,1-.7,3A2.18,2.18,0,0,1,232.43,104.55Zm0-1.08a.93.93,0,0,0,.51-.15,1.17,1.17,0,0,0,.4-.5,3.51,3.51,0,0,0,.26-.9,8.22,8.22,0,0,0,.1-1.37,8,8,0,0,0-.1-1.35,3.3,3.3,0,0,0-.26-.88,1.1,1.1,0,0,0-.4-.47,1,1,0,0,0-1,0,1.1,1.1,0,0,0-.4.47,3.23,3.23,0,0,0-.26.88,7.93,7.93,0,0,0-.1,1.35,8.1,8.1,0,0,0,.1,1.37,3.44,3.44,0,0,0,.26.9,1.17,1.17,0,0,0,.4.5A.93.93,0,0,0,232.43,103.47Z"/><path class="cls-2" d="M238.58,104.55a2.18,2.18,0,0,1-1.9-1,5.28,5.28,0,0,1-.7-3,5.1,5.1,0,0,1,.7-2.93,2.31,2.31,0,0,1,3.79,0,5.11,5.11,0,0,1,.7,2.93,5.28,5.28,0,0,1-.7,3A2.18,2.18,0,0,1,238.58,104.55Zm0-1.08a.93.93,0,0,0,.51-.15,1.17,1.17,0,0,0,.4-.5,3.51,3.51,0,0,0,.26-.9,8.22,8.22,0,0,0,.1-1.37,8,8,0,0,0-.1-1.35,3.3,3.3,0,0,0-.26-.88,1.1,1.1,0,0,0-.4-.47,1,1,0,0,0-1,0,1.1,1.1,0,0,0-.4.47,3.23,3.23,0,0,0-.26.88,7.93,7.93,0,0,0-.1,1.35,8.1,8.1,0,0,0,.1,1.37,3.44,3.44,0,0,0,.26.9,1.17,1.17,0,0,0,.4.5A.93.93,0,0,0,238.58,103.47Z"/><path class="cls-2" d="M242.55,103.28h1.7v-5h-1.4V97.4a6.45,6.45,0,0,0,1-.26,4.51,4.51,0,0,0,.77-.37h1v6.5h1.5v1.13h-4.6Z"/><path class="cls-2" d="M192.72,117.06h.94l1,3,.25.79.25.78h0l.24-.78.24-.79,1-3h.89l-1.89,5.35h-1.06Z"/><path class="cls-2" d="M198.19,119.75a3.22,3.22,0,0,1,.2-1.18,2.76,2.76,0,0,1,.54-.89,2.34,2.34,0,0,1,.76-.55,2.15,2.15,0,0,1,.89-.19,2.24,2.24,0,0,1,.91.18,1.77,1.77,0,0,1,.67.51,2.31,2.31,0,0,1,.41.79,3.47,3.47,0,0,1,.14,1,3,3,0,0,1,0,.5h-3.61a2.12,2.12,0,0,0,.53,1.38,1.64,1.64,0,0,0,1.25.51,2.1,2.1,0,0,0,.71-.12,3.14,3.14,0,0,0,.62-.3l.32.59a4.54,4.54,0,0,1-.78.38,2.7,2.7,0,0,1-1,.17,2.63,2.63,0,0,1-1-.19,2.39,2.39,0,0,1-.81-.55,2.55,2.55,0,0,1-.54-.87A3.27,3.27,0,0,1,198.19,119.75Zm3.74-.41a2,2,0,0,0-.35-1.26,1.17,1.17,0,0,0-1-.43,1.31,1.31,0,0,0-.54.12,1.49,1.49,0,0,0-.47.33,1.75,1.75,0,0,0-.35.53,2.44,2.44,0,0,0-.18.72Z"/><path class="cls-2" d="M204,117.06h.75l.08,1h0a2.47,2.47,0,0,1,.67-.8,1.37,1.37,0,0,1,.85-.3,1.42,1.42,0,0,1,.57.11l-.18.79-.24-.07-.27,0a1.2,1.2,0,0,0-.71.28,2.19,2.19,0,0,0-.64,1v3.43H204Z"/><path class="cls-2" d="M207.61,121.2a3.6,3.6,0,0,0,.72.46,2,2,0,0,0,.85.18,1.13,1.13,0,0,0,.79-.24.77.77,0,0,0,.26-.59.61.61,0,0,0-.11-.36,1.07,1.07,0,0,0-.28-.27,2,2,0,0,0-.39-.2L209,120l-.57-.23a2.25,2.25,0,0,1-.51-.31,1.57,1.57,0,0,1-.37-.42,1.12,1.12,0,0,1-.14-.58,1.45,1.45,0,0,1,.13-.6,1.39,1.39,0,0,1,.36-.48,1.73,1.73,0,0,1,.58-.32,2.58,2.58,0,0,1,1.7.06,2.89,2.89,0,0,1,.73.43l-.43.57a2.85,2.85,0,0,0-.57-.34,1.57,1.57,0,0,0-.65-.13,1,1,0,0,0-.74.23.73.73,0,0,0-.24.54.54.54,0,0,0,.1.32.94.94,0,0,0,.26.24,2.15,2.15,0,0,0,.38.19l.45.17.58.23a2.18,2.18,0,0,1,.52.3,1.47,1.47,0,0,1,.38.45,1.29,1.29,0,0,1,.15.64,1.52,1.52,0,0,1-.13.62,1.47,1.47,0,0,1-.37.51,1.81,1.81,0,0,1-.62.35,2.6,2.6,0,0,1-.84.13,2.87,2.87,0,0,1-1.09-.21,3.38,3.38,0,0,1-.9-.53Z"/><path class="cls-2" d="M212.82,116a.63.63,0,0,1-.45-.17.58.58,0,0,1,0-.84.7.7,0,0,1,.89,0,.58.58,0,0,1,0,.84A.64.64,0,0,1,212.82,116Zm-.46,1.1h.9v5.35h-.9Z"/><path class="cls-2" d="M214.67,119.75a3.25,3.25,0,0,1,.2-1.19,2.7,2.7,0,0,1,.54-.89,2.28,2.28,0,0,1,.79-.55,2.47,2.47,0,0,1,1.88,0,2.28,2.28,0,0,1,.79.55,2.71,2.71,0,0,1,.54.89,3.29,3.29,0,0,1,.2,1.19,3.26,3.26,0,0,1-.2,1.18,2.65,2.65,0,0,1-.54.88,2.32,2.32,0,0,1-.79.54,2.47,2.47,0,0,1-1.88,0,2.32,2.32,0,0,1-.79-.54,2.63,2.63,0,0,1-.54-.88A3.22,3.22,0,0,1,214.67,119.75Zm.94,0a3,3,0,0,0,.11.84,2,2,0,0,0,.31.64,1.44,1.44,0,0,0,.49.42,1.4,1.4,0,0,0,1.25,0,1.44,1.44,0,0,0,.49-.42,2,2,0,0,0,.31-.64,3,3,0,0,0,.11-.84,3,3,0,0,0-.11-.84,2,2,0,0,0-.31-.65,1.42,1.42,0,0,0-.49-.42,1.39,1.39,0,0,0-1.25,0,1.42,1.42,0,0,0-.49.42,2,2,0,0,0-.31.65A3,3,0,0,0,215.6,119.75Z"/><path class="cls-2" d="M221,117.06h.75l.08.77h0a4.38,4.38,0,0,1,.81-.64,1.85,1.85,0,0,1,1-.26,1.44,1.44,0,0,1,1.24.53,2.61,2.61,0,0,1,.39,1.56v3.39h-.9v-3.27a1.91,1.91,0,0,0-.24-1.09.89.89,0,0,0-.77-.34,1.32,1.32,0,0,0-.74.21,4.79,4.79,0,0,0-.73.62v3.87H221Z"/><path class="cls-2" d="M226.52,117.26h4.72v.68h-4.72Zm0,2.34h4.72v.68h-4.72Z"/><path class="cls-2" d="M232.36,121a3.6,3.6,0,0,0,.74.58,2,2,0,0,0,1.05.25,1.55,1.55,0,0,0,1-.35,1.17,1.17,0,0,0,.41-.94,1.39,1.39,0,0,0-.12-.57,1.1,1.1,0,0,0-.38-.45,2,2,0,0,0-.69-.29,4.82,4.82,0,0,0-1.06-.1v-.69a3.82,3.82,0,0,0,.94-.1,1.79,1.79,0,0,0,.62-.28,1,1,0,0,0,.33-.42,1.34,1.34,0,0,0,.1-.52,1,1,0,0,0-.33-.81,1.26,1.26,0,0,0-.88-.3,1.68,1.68,0,0,0-.81.2,3,3,0,0,0-.69.52l-.48-.57a3.79,3.79,0,0,1,.9-.63,2.44,2.44,0,0,1,1.12-.25,2.83,2.83,0,0,1,.85.12,2,2,0,0,1,.67.35,1.53,1.53,0,0,1,.43.56,1.78,1.78,0,0,1,.15.76,1.53,1.53,0,0,1-.35,1,2.26,2.26,0,0,1-.92.63v0a2.5,2.5,0,0,1,.59.23,1.89,1.89,0,0,1,.48.37,1.62,1.62,0,0,1,.32.52,1.81,1.81,0,0,1,.12.66,1.89,1.89,0,0,1-.18.84,1.86,1.86,0,0,1-.5.63,2.23,2.23,0,0,1-.73.4,2.87,2.87,0,0,1-.9.14,3.33,3.33,0,0,1-.76-.08,3.16,3.16,0,0,1-.63-.22,2.69,2.69,0,0,1-.51-.31,3,3,0,0,1-.4-.37Z"/><path class="cls-2" d="M237.79,121.86a.69.69,0,0,1,.19-.51.64.64,0,0,1,.47-.19.62.62,0,0,1,.46.19.69.69,0,0,1,.19.51.66.66,0,0,1-.19.49.62.62,0,0,1-.46.19.64.64,0,0,1-.47-.19A.66.66,0,0,1,237.79,121.86Z"/><path class="cls-2" d="M242.55,122.54a1.86,1.86,0,0,1-1.66-.95,5.13,5.13,0,0,1-.59-2.72,5,5,0,0,1,.59-2.69,1.94,1.94,0,0,1,3.31,0,5,5,0,0,1,.59,2.69,5.13,5.13,0,0,1-.59,2.72A1.85,1.85,0,0,1,242.55,122.54Zm0-.73a1,1,0,0,0,.56-.17,1.37,1.37,0,0,0,.43-.53,3.28,3.28,0,0,0,.28-.91,7.64,7.64,0,0,0,.1-1.33,7.53,7.53,0,0,0-.1-1.32,3.12,3.12,0,0,0-.28-.9,1.34,1.34,0,0,0-.43-.51,1,1,0,0,0-.56-.17,1,1,0,0,0-.56.17,1.32,1.32,0,0,0-.43.51,3.15,3.15,0,0,0-.28.9,7.63,7.63,0,0,0-.1,1.32,4.93,4.93,0,0,0,.38,2.24A1.13,1.13,0,0,0,242.55,121.81Z"/><path class="cls-2" d="M246,121.86a.69.69,0,0,1,.19-.51.64.64,0,0,1,.47-.19.62.62,0,0,1,.46.19.69.69,0,0,1,.19.51.66.66,0,0,1-.19.49.62.62,0,0,1-.46.19.64.64,0,0,1-.47-.19A.66.66,0,0,1,246,121.86Z"/><path class="cls-2" d="M248.89,121.66h1.61v-5.17h-1.28v-.58a5.4,5.4,0,0,0,.84-.21,3.35,3.35,0,0,0,.64-.3h.69v6.27h1.45v.75h-4Z"/><path class="cls-2" d="M254.23,121a3.6,3.6,0,0,0,.74.58,2,2,0,0,0,1.05.25,1.55,1.55,0,0,0,1-.35,1.17,1.17,0,0,0,.41-.94,1.39,1.39,0,0,0-.12-.57,1.1,1.1,0,0,0-.38-.45,2,2,0,0,0-.69-.29,4.82,4.82,0,0,0-1.06-.1v-.69a3.82,3.82,0,0,0,.94-.1,1.79,1.79,0,0,0,.62-.28,1,1,0,0,0,.33-.42,1.34,1.34,0,0,0,.1-.52,1,1,0,0,0-.33-.81,1.26,1.26,0,0,0-.88-.3,1.68,1.68,0,0,0-.81.2,3,3,0,0,0-.69.52l-.48-.57a3.79,3.79,0,0,1,.9-.63,2.44,2.44,0,0,1,1.12-.25,2.83,2.83,0,0,1,.85.12,2,2,0,0,1,.67.35,1.53,1.53,0,0,1,.43.56,1.78,1.78,0,0,1,.15.76,1.53,1.53,0,0,1-.35,1,2.26,2.26,0,0,1-.92.63v0a2.5,2.5,0,0,1,.59.23,1.89,1.89,0,0,1,.48.37,1.62,1.62,0,0,1,.32.52,1.81,1.81,0,0,1,.12.66,1.89,1.89,0,0,1-.18.84,1.86,1.86,0,0,1-.5.63,2.23,2.23,0,0,1-.73.4,2.87,2.87,0,0,1-.9.14,3.33,3.33,0,0,1-.76-.08,3.16,3.16,0,0,1-.63-.22,2.69,2.69,0,0,1-.51-.31,3,3,0,0,1-.4-.37Z"/><path class="cls-3" d="M146.33,59.64h-6.1c0-.2.1-.3.1-.5v-46a3.54,3.54,0,0,0-3.5-3.5H72.73a3.54,3.54,0,0,0-3.5,3.5v46a.9.9,0,0,0,.1.5H65.24c-3.4,0-3.4,0-3.4,3.5,0,1.6.76,6.5,5,6.5h75.5c2.23,0,5.59-1.28,5.9-4.86C148.67,59.64,148.67,59.64,146.33,59.64ZM72.23,16.27a3.63,3.63,0,0,1,3.63-3.62h58A3.39,3.39,0,0,1,137.23,16V56.92a2.72,2.72,0,0,1-2.72,2.72H75.4a3.17,3.17,0,0,1-3.17-3.17Zm70.2,51.38H67a2.71,2.71,0,0,1-2-.8c-1.14-1.23-1.28-4.46-1.3-5.05a.14.14,0,0,1,.14-.15H98.33a1.5,1.5,0,0,0,1.4,2h10a1.5,1.5,0,0,0,1.4-2h35.33a.26.26,0,0,1,.27.28C146.39,64.55,146.45,67.33,142.43,67.64Z"/><rect class="cls-4" x="74.23" y="14.64" width="61" height="43" rx="3" ry="3"/><path class="cls-5" d="M86.44,31.17H87.8v5.29h0L90,33.75h1.51l-2,2.4,2.22,3.49h-1.5l-1.51-2.56-.92,1.06v1.5H86.44Z"/><path class="cls-5" d="M92.45,33.75h1.38v3.52a1.83,1.83,0,0,0,.22,1,.8.8,0,0,0,.7.3,1.21,1.21,0,0,0,.68-.19,2.76,2.76,0,0,0,.63-.62v-4h1.38v5.89H96.3l-.11-.86h0a3.48,3.48,0,0,1-.83.73,2,2,0,0,1-1.06.28,1.58,1.58,0,0,1-1.38-.61,3,3,0,0,1-.43-1.73Z"/><path class="cls-5" d="M99.18,31.17h1.38v2.18l0,1a3.44,3.44,0,0,1,.81-.53,2.1,2.1,0,0,1,.89-.2,2.23,2.23,0,0,1,1,.21,2,2,0,0,1,.73.6,2.74,2.74,0,0,1,.46.94,4.53,4.53,0,0,1,.16,1.24,4,4,0,0,1-.21,1.35,3.13,3.13,0,0,1-.56,1,2.39,2.39,0,0,1-.8.62,2.18,2.18,0,0,1-.95.22,1.94,1.94,0,0,1-.82-.19,2.88,2.88,0,0,1-.79-.55h0l-.12.6H99.18Zm1.38,7a1.9,1.9,0,0,0,.62.38,1.73,1.73,0,0,0,.57.11,1.2,1.2,0,0,0,1-.51,2.44,2.44,0,0,0,.4-1.52,2.67,2.67,0,0,0-.3-1.38,1.05,1.05,0,0,0-1-.49,1.92,1.92,0,0,0-1.3.66Z"/><path class="cls-5" d="M105.57,36.7a3.51,3.51,0,0,1,.23-1.3,3,3,0,0,1,.61-1,2.7,2.7,0,0,1,.87-.61,2.49,2.49,0,0,1,1-.22,2.57,2.57,0,0,1,1.06.2,2.06,2.06,0,0,1,.76.58,2.56,2.56,0,0,1,.46.89,3.9,3.9,0,0,1,.16,1.13,2.78,2.78,0,0,1-.06.65h-3.74a1.94,1.94,0,0,0,.56,1.24,1.66,1.66,0,0,0,1.18.43,2.17,2.17,0,0,0,.71-.11,3.18,3.18,0,0,0,.65-.32l.47.86a4.21,4.21,0,0,1-.94.46,3.25,3.25,0,0,1-1.08.18,3,3,0,0,1-1.14-.21,2.71,2.71,0,0,1-.92-.61,2.77,2.77,0,0,1-.62-1A3.56,3.56,0,0,1,105.57,36.7Zm3.95-.53a1.83,1.83,0,0,0-.29-1.1,1.06,1.06,0,0,0-.91-.4,1.29,1.29,0,0,0-.92.38,1.81,1.81,0,0,0-.49,1.12Z"/><path class="cls-5" d="M111.65,36.7a3.37,3.37,0,0,1,.24-1.31,2.87,2.87,0,0,1,.65-1,2.82,2.82,0,0,1,.94-.61,3,3,0,0,1,1.12-.21,2.36,2.36,0,0,1,1,.2,2.65,2.65,0,0,1,.73.49l-.66.88a2.19,2.19,0,0,0-.48-.32,1.19,1.19,0,0,0-.52-.11,1.44,1.44,0,0,0-1.16.53,2.54,2.54,0,0,0,0,2.86,1.4,1.4,0,0,0,1.13.53,1.5,1.5,0,0,0,.67-.15,2.64,2.64,0,0,0,.55-.35l.58.88a3,3,0,0,1-.92.56,2.81,2.81,0,0,1-1,.19,3.06,3.06,0,0,1-1.12-.2,2.55,2.55,0,0,1-.91-.6,2.77,2.77,0,0,1-.6-1A3.72,3.72,0,0,1,111.65,36.7Z"/><path class="cls-5" d="M117.78,34.84h-.84v-1l.91-.06.17-1.61h1.15v1.61h1.5v1.09h-1.5v2.81q0,1,.83,1a1.44,1.44,0,0,0,.32,0,1.46,1.46,0,0,0,.29-.1l.24,1a4.51,4.51,0,0,1-.55.15,3.11,3.11,0,0,1-.65.07,2.17,2.17,0,0,1-.87-.16,1.48,1.48,0,0,1-.58-.44,1.81,1.81,0,0,1-.32-.67,3.47,3.47,0,0,1-.1-.87Z"/><path class="cls-5" d="M121.91,31.17h1.38v7a.52.52,0,0,0,.1.35.28.28,0,0,0,.2.1h.09l.13,0,.18,1a1.88,1.88,0,0,1-.73.12,1.17,1.17,0,0,1-1-.44,2.14,2.14,0,0,1-.3-1.21Z"/><polyline class="cls-6" points="63.35 95.89 71.23 104.14 71.23 69.14"/><line class="cls-6" x1="78.56" y1="95.89" x2="71.23" y2="104.14"/><path class="cls-5" d="M23.53,78.17h1.38v2.18l0,1a3.42,3.42,0,0,1,.81-.53,2.1,2.1,0,0,1,.89-.2,2.22,2.22,0,0,1,1,.21,2,2,0,0,1,.73.6,2.75,2.75,0,0,1,.46.94,4.49,4.49,0,0,1,.16,1.24,4.07,4.07,0,0,1-.21,1.35,3.13,3.13,0,0,1-.56,1,2.39,2.39,0,0,1-.8.62,2.17,2.17,0,0,1-.95.22,1.94,1.94,0,0,1-.82-.19,2.89,2.89,0,0,1-.79-.55h0l-.12.6H23.53Zm1.38,7a1.91,1.91,0,0,0,.62.38,1.73,1.73,0,0,0,.57.11,1.2,1.2,0,0,0,1-.51,2.44,2.44,0,0,0,.4-1.52,2.67,2.67,0,0,0-.3-1.38,1.05,1.05,0,0,0-1-.49,1.92,1.92,0,0,0-1.3.66Z"/><path class="cls-5" d="M29.9,85.06a1.63,1.63,0,0,1,.83-1.46,6.6,6.6,0,0,1,2.64-.72,1.55,1.55,0,0,0-.06-.44,1.07,1.07,0,0,0-.19-.37.85.85,0,0,0-.32-.25,1.22,1.22,0,0,0-.5-.09,2.25,2.25,0,0,0-.86.17,5.13,5.13,0,0,0-.8.41l-.5-.92a5.92,5.92,0,0,1,1.1-.54,3.7,3.7,0,0,1,1.31-.23,2,2,0,0,1,1.66.65,2.9,2.9,0,0,1,.54,1.89v3.49H33.62L33.51,86h0a4.28,4.28,0,0,1-.85.56,2.13,2.13,0,0,1-1,.23,1.73,1.73,0,0,1-1.27-.47A1.67,1.67,0,0,1,29.9,85.06ZM31.24,85a.68.68,0,0,0,.23.58,1,1,0,0,0,.61.18,1.33,1.33,0,0,0,.66-.17,3.12,3.12,0,0,0,.63-.48V83.74a6.25,6.25,0,0,0-1,.19,2.78,2.78,0,0,0-.65.27,1,1,0,0,0-.35.34A.82.82,0,0,0,31.24,85Z"/><path class="cls-5" d="M36,83.7a3.37,3.37,0,0,1,.24-1.31,2.88,2.88,0,0,1,.65-1,2.82,2.82,0,0,1,.94-.61A3,3,0,0,1,39,80.61a2.37,2.37,0,0,1,1,.2,2.63,2.63,0,0,1,.72.49l-.66.88a2.19,2.19,0,0,0-.48-.32,1.19,1.19,0,0,0-.52-.11,1.45,1.45,0,0,0-1.16.53,2.54,2.54,0,0,0,0,2.86,1.4,1.4,0,0,0,1.13.53,1.49,1.49,0,0,0,.67-.15,2.65,2.65,0,0,0,.55-.35l.57.88a3,3,0,0,1-.92.56,2.81,2.81,0,0,1-1,.19,3.05,3.05,0,0,1-1.12-.2,2.55,2.55,0,0,1-.91-.6,2.75,2.75,0,0,1-.6-1A3.7,3.7,0,0,1,36,83.7Z"/><path class="cls-5" d="M42,78.17h1.36v5.29h0l2.19-2.71h1.51l-2,2.4,2.22,3.49h-1.5l-1.51-2.56-.92,1.06v1.5H42Z"/><path class="cls-5" d="M48,80.75h1.38v3.52a1.83,1.83,0,0,0,.21,1,.8.8,0,0,0,.7.3,1.22,1.22,0,0,0,.68-.19,2.75,2.75,0,0,0,.63-.62v-4H53v5.89H51.83l-.11-.86h0a3.52,3.52,0,0,1-.83.73,2,2,0,0,1-1.06.28,1.58,1.58,0,0,1-1.38-.61A3,3,0,0,1,48,84.45Z"/><path class="cls-5" d="M56.09,87.12V89H54.71V80.75h1.14l.1.62h0a4.17,4.17,0,0,1,.83-.54,2.09,2.09,0,0,1,.95-.23,2.19,2.19,0,0,1,1,.21,2,2,0,0,1,.73.61,2.83,2.83,0,0,1,.46.95,4.49,4.49,0,0,1,.16,1.24A4.08,4.08,0,0,1,59.88,85a3.06,3.06,0,0,1-.56,1,2.42,2.42,0,0,1-.8.62,2.17,2.17,0,0,1-.95.22,1.9,1.9,0,0,1-.77-.17,2.92,2.92,0,0,1-.74-.48Zm0-2a2.06,2.06,0,0,0,.63.38,1.68,1.68,0,0,0,.56.11,1.2,1.2,0,0,0,1-.51,2.44,2.44,0,0,0,.4-1.52,2.67,2.67,0,0,0-.3-1.38,1.05,1.05,0,0,0-1-.49,1.92,1.92,0,0,0-1.3.66Z"/><rect class="cls-1" x="187.27" y="154.29" width="77.58" height="54.51" rx="3" ry="3"/><path class="cls-2" d="M195.47,167.94h1.38v2.18l0,1a3.44,3.44,0,0,1,.81-.53,2.1,2.1,0,0,1,.89-.2,2.23,2.23,0,0,1,1,.21,2,2,0,0,1,.73.6,2.74,2.74,0,0,1,.46.94,4.53,4.53,0,0,1,.16,1.24,4,4,0,0,1-.21,1.35,3.13,3.13,0,0,1-.56,1,2.39,2.39,0,0,1-.8.62,2.18,2.18,0,0,1-.95.22,1.94,1.94,0,0,1-.82-.19,2.88,2.88,0,0,1-.79-.55h0l-.12.6h-1.09Zm1.38,7a1.9,1.9,0,0,0,.62.38,1.73,1.73,0,0,0,.57.11,1.2,1.2,0,0,0,1-.51,2.44,2.44,0,0,0,.4-1.52,2.67,2.67,0,0,0-.3-1.38,1.05,1.05,0,0,0-1-.49,1.92,1.92,0,0,0-1.3.66Z"/><path class="cls-2" d="M201.84,174.82a1.63,1.63,0,0,1,.83-1.46,6.59,6.59,0,0,1,2.64-.72,1.58,1.58,0,0,0-.06-.44,1.09,1.09,0,0,0-.19-.37.86.86,0,0,0-.32-.25,1.22,1.22,0,0,0-.5-.09,2.26,2.26,0,0,0-.86.17,5.16,5.16,0,0,0-.8.41l-.5-.92a5.92,5.92,0,0,1,1.1-.54,3.7,3.7,0,0,1,1.31-.23,2,2,0,0,1,1.66.65,2.9,2.9,0,0,1,.54,1.89v3.49h-1.13l-.11-.65h0a4.32,4.32,0,0,1-.85.56,2.13,2.13,0,0,1-1,.23,1.73,1.73,0,0,1-1.27-.47A1.67,1.67,0,0,1,201.84,174.82Zm1.34-.11a.68.68,0,0,0,.23.58,1,1,0,0,0,.61.18,1.34,1.34,0,0,0,.66-.17,3.12,3.12,0,0,0,.62-.48V173.5a6.25,6.25,0,0,0-1,.19,2.8,2.8,0,0,0-.65.27,1,1,0,0,0-.35.34A.82.82,0,0,0,203.18,174.72Z"/><path class="cls-2" d="M208,173.47a3.37,3.37,0,0,1,.24-1.31,2.87,2.87,0,0,1,.65-1,2.82,2.82,0,0,1,.94-.61,3,3,0,0,1,1.12-.21,2.36,2.36,0,0,1,1,.2,2.65,2.65,0,0,1,.73.49l-.66.88a2.19,2.19,0,0,0-.48-.32,1.19,1.19,0,0,0-.52-.11,1.44,1.44,0,0,0-1.16.53,2.54,2.54,0,0,0,0,2.86,1.4,1.4,0,0,0,1.13.53,1.5,1.5,0,0,0,.67-.15,2.64,2.64,0,0,0,.55-.35l.58.88a3,3,0,0,1-.92.56,2.81,2.81,0,0,1-1,.19,3.06,3.06,0,0,1-1.12-.2,2.55,2.55,0,0,1-.91-.6,2.77,2.77,0,0,1-.6-1A3.72,3.72,0,0,1,208,173.47Z"/><path class="cls-2" d="M213.91,167.94h1.36v5.29h0l2.18-2.71H219l-2,2.4,2.22,3.49h-1.5l-1.51-2.56-.92,1.06v1.5h-1.36Z"/><path class="cls-2" d="M219.92,170.52h1.38V174a1.83,1.83,0,0,0,.22,1,.8.8,0,0,0,.7.3,1.21,1.21,0,0,0,.68-.19,2.76,2.76,0,0,0,.63-.62v-4h1.38v5.89h-1.13l-.11-.86h0a3.48,3.48,0,0,1-.83.73,2,2,0,0,1-1.06.28,1.58,1.58,0,0,1-1.38-.61,3,3,0,0,1-.43-1.73Z"/><path class="cls-2" d="M228,176.89v1.85h-1.38v-8.22h1.14l.1.62h0a4.17,4.17,0,0,1,.83-.54,2.09,2.09,0,0,1,.95-.23,2.19,2.19,0,0,1,1,.21,2,2,0,0,1,.73.61,2.81,2.81,0,0,1,.46.95,4.53,4.53,0,0,1,.16,1.24,4.05,4.05,0,0,1-.21,1.35,3.06,3.06,0,0,1-.56,1,2.42,2.42,0,0,1-.8.62,2.18,2.18,0,0,1-.95.22,1.9,1.9,0,0,1-.77-.17,2.92,2.92,0,0,1-.74-.48Zm0-2a2.06,2.06,0,0,0,.62.38,1.68,1.68,0,0,0,.56.11,1.2,1.2,0,0,0,1-.51,2.44,2.44,0,0,0,.4-1.52,2.67,2.67,0,0,0-.3-1.38,1.05,1.05,0,0,0-1-.49,1.92,1.92,0,0,0-1.3.66Z"/><path class="cls-2" d="M233.1,172.88H236v1H233.1Z"/><path class="cls-2" d="M237.54,171.61h-.84v-1l.91-.06.17-1.61h1.15v1.61h1.5v1.09h-1.5v2.81q0,1,.83,1a1.44,1.44,0,0,0,.32,0,1.46,1.46,0,0,0,.29-.1l.24,1a4.51,4.51,0,0,1-.55.15,3.11,3.11,0,0,1-.65.07,2.17,2.17,0,0,1-.87-.16A1.48,1.48,0,0,1,238,176a1.81,1.81,0,0,1-.32-.67,3.47,3.47,0,0,1-.1-.87Z"/><path class="cls-2" d="M241.16,173.47a3.54,3.54,0,0,1,.23-1.31,2.88,2.88,0,0,1,.62-1,2.72,2.72,0,0,1,2-.82,2.77,2.77,0,0,1,1.06.21,2.63,2.63,0,0,1,.89.61,3,3,0,0,1,.62,1,3.78,3.78,0,0,1,0,2.62,3,3,0,0,1-.62,1,2.57,2.57,0,0,1-.89.6,2.83,2.83,0,0,1-1.06.2,2.79,2.79,0,0,1-1.06-.2,2.64,2.64,0,0,1-.89-.6,2.88,2.88,0,0,1-.62-1A3.55,3.55,0,0,1,241.16,173.47Zm1.42,0a2.47,2.47,0,0,0,.37,1.42,1.16,1.16,0,0,0,1,.53,1.18,1.18,0,0,0,1-.53,2.93,2.93,0,0,0,0-2.86,1.18,1.18,0,0,0-1-.53,1.16,1.16,0,0,0-1,.53A2.5,2.5,0,0,0,242.58,173.47Z"/><path class="cls-2" d="M247.75,173.47a3.54,3.54,0,0,1,.23-1.31,2.88,2.88,0,0,1,.62-1,2.72,2.72,0,0,1,2-.82,2.77,2.77,0,0,1,1.06.21,2.63,2.63,0,0,1,.89.61,3,3,0,0,1,.62,1,3.78,3.78,0,0,1,0,2.62,3,3,0,0,1-.62,1,2.57,2.57,0,0,1-.89.6,2.83,2.83,0,0,1-1.06.2,2.79,2.79,0,0,1-1.06-.2,2.64,2.64,0,0,1-.89-.6,2.88,2.88,0,0,1-.62-1A3.55,3.55,0,0,1,247.75,173.47Zm1.42,0a2.47,2.47,0,0,0,.37,1.42,1.16,1.16,0,0,0,1,.53,1.18,1.18,0,0,0,1-.53,2.93,2.93,0,0,0,0-2.86,1.18,1.18,0,0,0-1-.53,1.16,1.16,0,0,0-1,.53A2.5,2.5,0,0,0,249.17,173.47Z"/><path class="cls-2" d="M254.72,167.94h1.38v7a.52.52,0,0,0,.1.35.28.28,0,0,0,.2.1h.09l.13,0,.18,1a1.88,1.88,0,0,1-.73.12,1.17,1.17,0,0,1-1-.44,2.14,2.14,0,0,1-.3-1.21Z"/><path class="cls-2" d="M197,188a.63.63,0,0,1-.45-.17.58.58,0,0,1,0-.84.7.7,0,0,1,.89,0,.58.58,0,0,1,0,.84A.64.64,0,0,1,197,188Zm-.46,1.1h.9v5.35h-.9Z"/><path class="cls-2" d="M199.2,189.06h.75l.08.77h0a4.38,4.38,0,0,1,.81-.64,1.85,1.85,0,0,1,1-.26,1.44,1.44,0,0,1,1.24.53,2.61,2.61,0,0,1,.39,1.56v3.39h-.9v-3.27a1.91,1.91,0,0,0-.24-1.09.89.89,0,0,0-.77-.34,1.32,1.32,0,0,0-.74.21,4.79,4.79,0,0,0-.73.62v3.87h-.9Z"/><path class="cls-2" d="M205.37,189.8h-.79v-.68l.84-.05.11-1.5h.76v1.5h1.44v.74h-1.44v3a1.36,1.36,0,0,0,.18.76.72.72,0,0,0,.64.27,1.15,1.15,0,0,0,.31,0l.3-.1.18.68-.48.14a2.26,2.26,0,0,1-.51.06,1.75,1.75,0,0,1-.72-.13,1.24,1.24,0,0,1-.47-.36,1.41,1.41,0,0,1-.26-.56,3.23,3.23,0,0,1-.08-.73Z"/><path class="cls-2" d="M208.43,191.75a3.22,3.22,0,0,1,.2-1.18,2.76,2.76,0,0,1,.54-.89,2.34,2.34,0,0,1,.76-.55,2.15,2.15,0,0,1,.89-.19,2.24,2.24,0,0,1,.91.18,1.77,1.77,0,0,1,.67.51,2.31,2.31,0,0,1,.41.79,3.47,3.47,0,0,1,.14,1,3,3,0,0,1,0,.5h-3.61a2.12,2.12,0,0,0,.53,1.38,1.64,1.64,0,0,0,1.25.51,2.1,2.1,0,0,0,.71-.12,3.14,3.14,0,0,0,.62-.3l.32.59a4.54,4.54,0,0,1-.78.38,2.7,2.7,0,0,1-1,.17,2.63,2.63,0,0,1-1-.19,2.39,2.39,0,0,1-.81-.55,2.55,2.55,0,0,1-.54-.87A3.27,3.27,0,0,1,208.43,191.75Zm3.74-.41a2,2,0,0,0-.35-1.26,1.17,1.17,0,0,0-1-.43,1.31,1.31,0,0,0-.54.12,1.49,1.49,0,0,0-.47.33,1.75,1.75,0,0,0-.35.53,2.44,2.44,0,0,0-.18.72Z"/><path class="cls-2" d="M214.28,189.06H215l.08,1h0a2.47,2.47,0,0,1,.67-.8,1.37,1.37,0,0,1,.85-.3,1.42,1.42,0,0,1,.57.11l-.18.79-.24-.07-.27,0a1.2,1.2,0,0,0-.71.28,2.19,2.19,0,0,0-.64,1v3.43h-.9Z"/><path class="cls-2" d="M217.54,189.06h.94l1,3,.25.79.25.78h0l.24-.78.24-.79,1-3h.89l-1.89,5.35h-1.06Z"/><path class="cls-2" d="M223,193a1.48,1.48,0,0,1,.79-1.35,6.49,6.49,0,0,1,2.5-.65,2.52,2.52,0,0,0,0-.5,1.17,1.17,0,0,0-.18-.43,1,1,0,0,0-.33-.3,1.11,1.11,0,0,0-.54-.12,2.16,2.16,0,0,0-.87.18,4.29,4.29,0,0,0-.72.4l-.36-.63a5.84,5.84,0,0,1,.91-.47,3.06,3.06,0,0,1,1.19-.22,1.64,1.64,0,0,1,1.42.6,2.64,2.64,0,0,1,.44,1.6v3.28h-.75l-.08-.64h0a4.44,4.44,0,0,1-.83.54,2.05,2.05,0,0,1-.94.23,1.63,1.63,0,0,1-1.13-.4A1.42,1.42,0,0,1,223,193Zm.89-.07a.76.76,0,0,0,.27.66,1.09,1.09,0,0,0,.67.2,1.55,1.55,0,0,0,.73-.18,3.56,3.56,0,0,0,.73-.53v-1.49a9.27,9.27,0,0,0-1.13.21,3,3,0,0,0-.74.29,1.05,1.05,0,0,0-.4.38A.93.93,0,0,0,223.85,193Z"/><path class="cls-2" d="M228.86,186.58h.9v6.82a.47.47,0,0,0,.08.31.23.23,0,0,0,.18.09h.08l.12,0,.12.68a.77.77,0,0,1-.21.07l-.31,0a.84.84,0,0,1-.74-.31,1.55,1.55,0,0,1-.22-.9Z"/><path class="cls-2" d="M231.13,189.26h4.72v.68h-4.72Zm0,2.34h4.72v.68h-4.72Z"/><path class="cls-2" d="M237,193a3.6,3.6,0,0,0,.74.58,2,2,0,0,0,1.05.25,1.55,1.55,0,0,0,1-.35,1.17,1.17,0,0,0,.41-.94,1.39,1.39,0,0,0-.12-.57,1.1,1.1,0,0,0-.38-.45,2,2,0,0,0-.69-.29,4.82,4.82,0,0,0-1.06-.1v-.69a3.82,3.82,0,0,0,.94-.1,1.79,1.79,0,0,0,.62-.28,1,1,0,0,0,.33-.42,1.34,1.34,0,0,0,.1-.52,1,1,0,0,0-.33-.81,1.26,1.26,0,0,0-.88-.3,1.68,1.68,0,0,0-.81.2,3,3,0,0,0-.69.52l-.48-.57a3.79,3.79,0,0,1,.9-.63,2.44,2.44,0,0,1,1.12-.25,2.83,2.83,0,0,1,.85.12,2,2,0,0,1,.67.35,1.53,1.53,0,0,1,.43.56,1.78,1.78,0,0,1,.15.76,1.53,1.53,0,0,1-.35,1,2.26,2.26,0,0,1-.92.63v0a2.5,2.5,0,0,1,.59.23,1.89,1.89,0,0,1,.48.37,1.62,1.62,0,0,1,.32.52,1.81,1.81,0,0,1,.12.66,1.89,1.89,0,0,1-.18.84,1.86,1.86,0,0,1-.5.63,2.23,2.23,0,0,1-.73.4,2.87,2.87,0,0,1-.9.14,3.33,3.33,0,0,1-.76-.08,3.16,3.16,0,0,1-.63-.22,2.69,2.69,0,0,1-.51-.31,3,3,0,0,1-.4-.37Z"/><path class="cls-2" d="M244.43,194.54a1.86,1.86,0,0,1-1.66-.95,5.13,5.13,0,0,1-.59-2.72,5,5,0,0,1,.59-2.69,1.94,1.94,0,0,1,3.31,0,5,5,0,0,1,.59,2.69,5.13,5.13,0,0,1-.59,2.72A1.85,1.85,0,0,1,244.43,194.54Zm0-.73a1,1,0,0,0,.56-.17,1.37,1.37,0,0,0,.43-.53,3.28,3.28,0,0,0,.28-.91,7.64,7.64,0,0,0,.1-1.33,7.53,7.53,0,0,0-.1-1.32,3.12,3.12,0,0,0-.28-.9,1.34,1.34,0,0,0-.43-.51,1,1,0,0,0-.56-.17,1,1,0,0,0-.56.17,1.32,1.32,0,0,0-.43.51,3.15,3.15,0,0,0-.28.9,7.63,7.63,0,0,0-.1,1.32,4.93,4.93,0,0,0,.38,2.24A1.13,1.13,0,0,0,244.43,193.81Z"/><path class="cls-2" d="M249.9,194.54a1.86,1.86,0,0,1-1.66-.95,5.13,5.13,0,0,1-.59-2.72,5,5,0,0,1,.59-2.69,1.94,1.94,0,0,1,3.31,0,5,5,0,0,1,.59,2.69,5.13,5.13,0,0,1-.59,2.72A1.85,1.85,0,0,1,249.9,194.54Zm0-.73a1,1,0,0,0,.56-.17,1.37,1.37,0,0,0,.43-.53,3.28,3.28,0,0,0,.28-.91,7.64,7.64,0,0,0,.1-1.33,7.53,7.53,0,0,0-.1-1.32,3.12,3.12,0,0,0-.28-.9,1.34,1.34,0,0,0-.43-.51,1,1,0,0,0-.56-.17,1,1,0,0,0-.56.17,1.32,1.32,0,0,0-.43.51,3.15,3.15,0,0,0-.28.9,7.63,7.63,0,0,0-.1,1.32,4.93,4.93,0,0,0,.38,2.24A1.13,1.13,0,0,0,249.9,193.81Z"/><path class="cls-2" d="M253.38,193.2a3.6,3.6,0,0,0,.72.46,2,2,0,0,0,.85.18,1.13,1.13,0,0,0,.79-.24A.77.77,0,0,0,256,193a.61.61,0,0,0-.11-.36,1.07,1.07,0,0,0-.28-.27,2,2,0,0,0-.39-.2l-.44-.18-.57-.23a2.25,2.25,0,0,1-.51-.31,1.57,1.57,0,0,1-.37-.42,1.12,1.12,0,0,1-.14-.58,1.45,1.45,0,0,1,.13-.6,1.39,1.39,0,0,1,.36-.48,1.73,1.73,0,0,1,.58-.32,2.58,2.58,0,0,1,1.7.06,2.89,2.89,0,0,1,.73.43l-.43.57a2.85,2.85,0,0,0-.57-.34,1.57,1.57,0,0,0-.65-.13,1,1,0,0,0-.74.23.73.73,0,0,0-.24.54.54.54,0,0,0,.1.32.94.94,0,0,0,.26.24,2.15,2.15,0,0,0,.38.19l.45.17.58.23a2.18,2.18,0,0,1,.52.3,1.47,1.47,0,0,1,.38.45,1.29,1.29,0,0,1,.15.64,1.52,1.52,0,0,1-.13.62,1.47,1.47,0,0,1-.37.51,1.81,1.81,0,0,1-.62.35,2.6,2.6,0,0,1-.84.13,2.87,2.87,0,0,1-1.09-.21,3.38,3.38,0,0,1-.9-.53Z"/><line class="cls-7" x1="174.19" y1="111.46" x2="148.86" y2="136.8"/><path class="cls-8" d="M166.79,112.75a.45.45,0,0,0,.54.34l6.72-1.49-1.49,6.72a.45.45,0,0,0,.88.2l1.64-7.41a.45.45,0,0,0-.54-.54l-7.41,1.64a.45.45,0,0,0-.34.54Z"/><path class="cls-8" d="M150.15,129.4a.45.45,0,0,1,.34.54L149,136.65l6.72-1.49a.45.45,0,0,1,.2.88l-7.41,1.64a.45.45,0,0,1-.54-.54l1.64-7.41a.45.45,0,0,1,.54-.34Z"/><line class="cls-7" x1="148.86" y1="149.83" x2="174.19" y2="175.17"/><path class="cls-8" d="M150.15,157.24a.45.45,0,0,0,.34-.54L149,150l6.72,1.49a.45.45,0,0,0,.2-.88l-7.41-1.64a.45.45,0,0,0-.54.54l1.64,7.41a.45.45,0,0,0,.54.34Z"/><path class="cls-8" d="M166.79,173.88a.45.45,0,0,1,.54-.34L174,175l-1.49-6.72a.45.45,0,0,1,.88-.2l1.64,7.41a.45.45,0,0,1-.54.54l-7.41-1.64a.45.45,0,0,1-.34-.54Z"/><path class="cls-9" d="M224.4,9A7.56,7.56,0,1,0,232,16.59,7.57,7.57,0,0,0,224.4,9Zm2.84,9.49-.19,0c-.57.07-1.18.12-1.82.15l-.84,0-.84,0c-.64,0-1.25-.07-1.82-.15-.05-.43-.09-.87-.1-1.32q0-.31,0-.63t0-.63c0-.46.05-.9.1-1.32l0-.26c.37-2.7,1.4-4.65,2.62-4.65a6.87,6.87,0,0,1,6.87,6.87C231.27,17.45,229.62,18.18,227.24,18.52Z"/><path class="cls-9" d="M227.24,14.66a3.49,3.49,0,0,0-.22-.29,3.43,3.43,0,0,0-2.62-1.22c-.34,0-.64.52-.84,1.33a8.08,8.08,0,0,0-.18,1.09c0,.32,0,.66,0,1s0,.69,0,1c.32,0,.66,0,1,0s.69,0,1,0a6.31,6.31,0,0,0,1.74-.38c.43-.18.68-.4.68-.63A3.42,3.42,0,0,0,227.24,14.66Z"/><path class="cls-9" d="M239.09,12.86a2.84,2.84,0,0,1,2.06.92l-.71.8a1.85,1.85,0,0,0-1.34-.6c-1.19,0-2,1-2,2.62s.79,2.65,2,2.65a2,2,0,0,0,1.53-.72l.71.79A2.89,2.89,0,0,1,239,20.37c-1.84,0-3.29-1.33-3.29-3.73S237.23,12.86,239.09,12.86Z"/><path class="cls-9" d="M244.16,14.67a2.63,2.63,0,0,1,2.59,2.86,2.6,2.6,0,1,1-5.17,0A2.63,2.63,0,0,1,244.16,14.67Zm0,4.66c.8,0,1.28-.72,1.28-1.81s-.49-1.82-1.28-1.82-1.27.72-1.27,1.82S243.37,19.33,244.16,19.33Z"/><path class="cls-9" d="M247.18,14.8h1.05l.09,1h0a1.85,1.85,0,0,1,1.54-1.1,1.38,1.38,0,0,1,.62.11l-.22,1.11a1.78,1.78,0,0,0-.56-.09c-.43,0-1,.3-1.28,1.12v3.32h-1.27V14.8Z"/><path class="cls-9" d="M252.9,14.67c1.47,0,2.25,1.06,2.25,2.58a2.73,2.73,0,0,1-.06.6h-3.46a1.56,1.56,0,0,0,1.61,1.54,2.27,2.27,0,0,0,1.26-.4l.43.8a3.43,3.43,0,0,1-1.86.59,2.62,2.62,0,0,1-2.68-2.85A2.65,2.65,0,0,1,252.9,14.67ZM254,17c0-.86-.37-1.38-1.11-1.38s-1.2.48-1.31,1.38Z"/><path class="cls-9" d="M257.09,16.56c0-2.3,1.25-3.75,3-3.75s3,1.45,3,3.75-1.25,3.81-3,3.81S257.09,18.88,257.09,16.56Zm5.48,0c0-2-1-3.29-2.47-3.29s-2.48,1.27-2.48,3.29,1,3.34,2.48,3.34S262.57,18.59,262.57,16.56Z"/><path class="cls-9" d="M264.07,18.92a2.88,2.88,0,0,0,2.15,1c1.11,0,1.82-.6,1.82-1.46s-.6-1.21-1.32-1.53l-1.11-.5a2,2,0,0,1-1.47-1.82,1.91,1.91,0,0,1,2.12-1.79,2.78,2.78,0,0,1,2,.88L268,14a2.31,2.31,0,0,0-1.74-.75c-1,0-1.61.51-1.61,1.31s.73,1.16,1.26,1.41l1.11.49c.81.37,1.53.82,1.53,1.94a2.08,2.08,0,0,1-2.34,2,3.22,3.22,0,0,1-2.46-1.1Z"/><circle class="cls-10" cx="33.18" cy="128.12" r="5.71"/><path class="cls-2" d="M29.59,129l4.64-5.91c.1.2,0,.32,0,.44-.42,1.16-.84,2.32-1.28,3.47-.11.29-.06.36.25.36,1,0,2,0,3,0,.08,0,.19,0,.24.05s-.05.16-.1.22l-3.8,5c-.06.08-.12.2-.23.15s0-.18,0-.29c.29-1.07.58-2.14.88-3.2.07-.25,0-.3-.23-.3H30Z"/></svg>