<svg id="Layer_1" data-name="Layer 1" xmlns="http://www.w3.org/2000/svg" viewBox="0 0 277 201"><defs><style>.cls-1{fill:#eff9fc;stroke:#64c2e5;}.cls-1,.cls-3,.cls-6{stroke-miterlimit:10;}.cls-2{fill:#449fd8;}.cls-3,.cls-8{fill:none;}.cls-3{stroke:#1c425b;}.cls-4{fill:#1c425b;}.cls-5{fill:#4abb8a;}.cls-6{fill:#eff9f5;}.cls-6,.cls-8{stroke:#4abb8a;}.cls-7{fill:#1c435b;}.cls-8{stroke-linecap:round;stroke-linejoin:round;stroke-width:3px;}.cls-9{fill:#ddd;}</style></defs><title>RS-before</title><rect class="cls-1" x="6.27" y="112.29" width="130.58" height="60.51" rx="3" ry="3"/><path class="cls-2" d="M47.87,130.07,46.18,127H45v3.07H43.59v-7.85h2.65a5.14,5.14,0,0,1,1.14.12,2.56,2.56,0,0,1,.91.39,1.88,1.88,0,0,1,.61.71,2.45,2.45,0,0,1,.22,1.1,2.31,2.31,0,0,1-.43,1.45,2.33,2.33,0,0,1-1.13.79l1.87,3.28ZM45,125.89H46.1a2,2,0,0,0,1.23-.34,1.21,1.21,0,0,0,.43-1,1,1,0,0,0-.43-.95,2.36,2.36,0,0,0-1.23-.26H45Z"/><path class="cls-2" d="M50.15,127.13a3.51,3.51,0,0,1,.23-1.3,3,3,0,0,1,.61-1,2.7,2.7,0,0,1,.87-.61,2.49,2.49,0,0,1,1-.22,2.57,2.57,0,0,1,1.06.2,2.06,2.06,0,0,1,.76.58,2.56,2.56,0,0,1,.46.89,3.9,3.9,0,0,1,.16,1.13,2.78,2.78,0,0,1-.06.65H51.5a1.94,1.94,0,0,0,.56,1.24,1.66,1.66,0,0,0,1.18.43A2.17,2.17,0,0,0,54,129a3.18,3.18,0,0,0,.65-.32l.47.86a4.21,4.21,0,0,1-.94.46,3.25,3.25,0,0,1-1.08.18,3,3,0,0,1-1.14-.21,2.71,2.71,0,0,1-.92-.61,2.77,2.77,0,0,1-.62-1A3.56,3.56,0,0,1,50.15,127.13Zm3.95-.53a1.83,1.83,0,0,0-.29-1.1,1.06,1.06,0,0,0-.91-.4,1.29,1.29,0,0,0-.92.38,1.81,1.81,0,0,0-.49,1.12Z"/><path class="cls-2" d="M58,130.55v1.85H56.62v-8.22h1.14l.1.62h0a4.17,4.17,0,0,1,.83-.54,2.09,2.09,0,0,1,.95-.23,2.19,2.19,0,0,1,1,.21,2,2,0,0,1,.73.61,2.81,2.81,0,0,1,.46.95A4.53,4.53,0,0,1,62,127a4.05,4.05,0,0,1-.21,1.35,3.06,3.06,0,0,1-.56,1,2.42,2.42,0,0,1-.8.62,2.18,2.18,0,0,1-.95.22,1.9,1.9,0,0,1-.77-.17,2.92,2.92,0,0,1-.74-.48Zm0-2a2.06,2.06,0,0,0,.62.38,1.68,1.68,0,0,0,.56.11,1.2,1.2,0,0,0,1-.51,2.44,2.44,0,0,0,.4-1.52,2.67,2.67,0,0,0-.3-1.38,1.05,1.05,0,0,0-1-.49,1.92,1.92,0,0,0-1.3.66Z"/><path class="cls-2" d="M63.39,121.6h1.38v7a.52.52,0,0,0,.1.35.28.28,0,0,0,.2.1h.09l.13,0,.18,1a1.88,1.88,0,0,1-.73.12,1.17,1.17,0,0,1-1-.44,2.14,2.14,0,0,1-.3-1.21Z"/><path class="cls-2" d="M67.34,123.15a.88.88,0,0,1-.61-.22.72.72,0,0,1-.24-.56.74.74,0,0,1,.24-.57,1,1,0,0,1,1.22,0,.74.74,0,0,1,.24.57.72.72,0,0,1-.24.56A.88.88,0,0,1,67.34,123.15Zm-.7,1H68v5.89H66.64Z"/><path class="cls-2" d="M69.4,127.13a3.37,3.37,0,0,1,.24-1.31,2.87,2.87,0,0,1,.65-1,2.82,2.82,0,0,1,.94-.61,3,3,0,0,1,1.12-.21,2.36,2.36,0,0,1,1,.2,2.65,2.65,0,0,1,.73.49l-.66.88a2.19,2.19,0,0,0-.48-.32,1.19,1.19,0,0,0-.52-.11,1.44,1.44,0,0,0-1.16.53,2.54,2.54,0,0,0,0,2.86,1.4,1.4,0,0,0,1.13.53,1.5,1.5,0,0,0,.67-.15,2.64,2.64,0,0,0,.55-.35l.58.88a3,3,0,0,1-.92.56,2.81,2.81,0,0,1-1,.19,3.06,3.06,0,0,1-1.12-.2,2.55,2.55,0,0,1-.91-.6,2.77,2.77,0,0,1-.6-1A3.72,3.72,0,0,1,69.4,127.13Z"/><path class="cls-2" d="M75,128.49a1.63,1.63,0,0,1,.83-1.46,6.59,6.59,0,0,1,2.64-.72,1.58,1.58,0,0,0-.06-.44,1.09,1.09,0,0,0-.19-.37.86.86,0,0,0-.32-.25,1.22,1.22,0,0,0-.5-.09,2.26,2.26,0,0,0-.86.17,5.16,5.16,0,0,0-.8.41l-.5-.92a5.92,5.92,0,0,1,1.1-.54,3.7,3.7,0,0,1,1.31-.23,2,2,0,0,1,1.66.65,2.9,2.9,0,0,1,.54,1.89v3.49H78.67l-.11-.65h0a4.32,4.32,0,0,1-.85.56,2.13,2.13,0,0,1-1,.23,1.73,1.73,0,0,1-1.27-.47A1.67,1.67,0,0,1,75,128.49Zm1.34-.11a.68.68,0,0,0,.23.58,1,1,0,0,0,.61.18,1.34,1.34,0,0,0,.66-.17,3.12,3.12,0,0,0,.62-.48v-1.32a6.25,6.25,0,0,0-1,.19,2.8,2.8,0,0,0-.65.27,1,1,0,0,0-.35.34A.82.82,0,0,0,76.3,128.38Z"/><path class="cls-2" d="M81.88,128.11a3.48,3.48,0,0,0,1,.64,2.58,2.58,0,0,0,1.08.25,1.62,1.62,0,0,0,1-.28.89.89,0,0,0,.35-.73.85.85,0,0,0-.09-.41.92.92,0,0,0-.25-.29,2.13,2.13,0,0,0-.38-.23l-.49-.22L83,126.37a3.63,3.63,0,0,1-.57-.3,2.5,2.5,0,0,1-.51-.43,2,2,0,0,1-.5-1.36,2,2,0,0,1,.2-.87,2.21,2.21,0,0,1,.55-.7,2.55,2.55,0,0,1,.83-.47,3.25,3.25,0,0,1,1.06-.17,3.33,3.33,0,0,1,1.32.27,3.42,3.42,0,0,1,1.09.73l-.71.89a3.49,3.49,0,0,0-.79-.49,2.24,2.24,0,0,0-.91-.18,1.49,1.49,0,0,0-.9.25.8.8,0,0,0-.34.68.72.72,0,0,0,.1.39,1.06,1.06,0,0,0,.28.29,2.21,2.21,0,0,0,.4.23l.47.2,1.07.44a3.69,3.69,0,0,1,.64.34,2.34,2.34,0,0,1,.5.44,1.94,1.94,0,0,1,.33.58,2.23,2.23,0,0,1,.12.76,2.14,2.14,0,0,1-.19.9,2.17,2.17,0,0,1-.56.74,2.74,2.74,0,0,1-.89.5,3.51,3.51,0,0,1-1.18.19,4,4,0,0,1-1.53-.3,4,4,0,0,1-1.3-.85Z"/><path class="cls-2" d="M87.64,127.13a3.51,3.51,0,0,1,.23-1.3,3,3,0,0,1,.61-1,2.7,2.7,0,0,1,.87-.61,2.49,2.49,0,0,1,1-.22,2.57,2.57,0,0,1,1.06.2,2.06,2.06,0,0,1,.76.58,2.56,2.56,0,0,1,.46.89,3.9,3.9,0,0,1,.16,1.13,2.78,2.78,0,0,1-.06.65H89a1.94,1.94,0,0,0,.56,1.24,1.66,1.66,0,0,0,1.18.43,2.17,2.17,0,0,0,.71-.11,3.18,3.18,0,0,0,.65-.32l.47.86a4.21,4.21,0,0,1-.94.46,3.25,3.25,0,0,1-1.08.18A3,3,0,0,1,89.4,130a2.71,2.71,0,0,1-.92-.61,2.77,2.77,0,0,1-.62-1A3.56,3.56,0,0,1,87.64,127.13Zm3.95-.53a1.83,1.83,0,0,0-.29-1.1,1.06,1.06,0,0,0-.91-.4,1.29,1.29,0,0,0-.92.38A1.81,1.81,0,0,0,89,126.6Z"/><path class="cls-2" d="M94.12,125.27h-.84v-1l.91-.06.17-1.61h1.15v1.61H97v1.09h-1.5v2.81q0,1,.83,1a1.44,1.44,0,0,0,.32,0A1.46,1.46,0,0,0,97,129l.24,1a4.51,4.51,0,0,1-.55.15,3.11,3.11,0,0,1-.65.07,2.17,2.17,0,0,1-.87-.16,1.48,1.48,0,0,1-.58-.44,1.81,1.81,0,0,1-.32-.67,3.47,3.47,0,0,1-.1-.87Z"/><path class="cls-2" d="M32.23,146.68a1.48,1.48,0,0,1,.79-1.35,6.49,6.49,0,0,1,2.5-.65,2.52,2.52,0,0,0,0-.5,1.17,1.17,0,0,0-.18-.43,1,1,0,0,0-.33-.3,1.11,1.11,0,0,0-.54-.12,2.16,2.16,0,0,0-.87.18,4.29,4.29,0,0,0-.72.4l-.36-.63a5.84,5.84,0,0,1,.91-.47,3.06,3.06,0,0,1,1.19-.22,1.64,1.64,0,0,1,1.42.6,2.64,2.64,0,0,1,.44,1.6v3.28h-.75l-.08-.64h0a4.44,4.44,0,0,1-.83.54,2.05,2.05,0,0,1-.94.23,1.63,1.63,0,0,1-1.13-.4A1.42,1.42,0,0,1,32.23,146.68Zm.89-.07a.76.76,0,0,0,.27.66,1.09,1.09,0,0,0,.67.2,1.55,1.55,0,0,0,.73-.18,3.56,3.56,0,0,0,.73-.53v-1.49a9.27,9.27,0,0,0-1.13.21,3,3,0,0,0-.74.29,1.05,1.05,0,0,0-.4.38A.93.93,0,0,0,33.12,146.62Z"/><path class="cls-2" d="M39,148.52v1.8h-.9v-7.6h.75l.08.62h0a4.06,4.06,0,0,1,.8-.53,2,2,0,0,1,.91-.22,2.06,2.06,0,0,1,.91.19,1.77,1.77,0,0,1,.66.55,2.59,2.59,0,0,1,.4.86,4.26,4.26,0,0,1,.14,1.13,3.65,3.65,0,0,1-.19,1.22,2.8,2.8,0,0,1-.51.91,2.14,2.14,0,0,1-.74.57,2.09,2.09,0,0,1-.88.19,1.8,1.8,0,0,1-.74-.17,3.67,3.67,0,0,1-.74-.45Zm0-1.64a2.38,2.38,0,0,0,.7.43,1.76,1.76,0,0,0,.61.13,1.29,1.29,0,0,0,.61-.15,1.46,1.46,0,0,0,.48-.42,2,2,0,0,0,.32-.67,3.17,3.17,0,0,0,.12-.89,3.92,3.92,0,0,0-.08-.8,1.82,1.82,0,0,0-.25-.62,1.2,1.2,0,0,0-.44-.4,1.37,1.37,0,0,0-.64-.14,1.44,1.44,0,0,0-.69.19,4.06,4.06,0,0,0-.74.54Z"/><path class="cls-2" d="M45.13,148.52v1.8h-.9v-7.6H45l.08.62h0a4.06,4.06,0,0,1,.8-.53,2,2,0,0,1,.91-.22,2.06,2.06,0,0,1,.91.19,1.77,1.77,0,0,1,.66.55,2.59,2.59,0,0,1,.4.86,4.26,4.26,0,0,1,.14,1.13,3.65,3.65,0,0,1-.19,1.22,2.8,2.8,0,0,1-.51.91,2.14,2.14,0,0,1-.74.57,2.09,2.09,0,0,1-.88.19,1.8,1.8,0,0,1-.74-.17,3.67,3.67,0,0,1-.74-.45Zm0-1.64a2.38,2.38,0,0,0,.7.43,1.76,1.76,0,0,0,.61.13,1.29,1.29,0,0,0,.61-.15,1.46,1.46,0,0,0,.48-.42,2,2,0,0,0,.32-.67,3.17,3.17,0,0,0,.12-.89,3.92,3.92,0,0,0-.08-.8,1.82,1.82,0,0,0-.25-.62,1.2,1.2,0,0,0-.44-.4,1.37,1.37,0,0,0-.64-.14,1.44,1.44,0,0,0-.69.19,4.06,4.06,0,0,0-.74.54Z"/><path class="cls-2" d="M49.81,142.92h4.72v.68H49.81Zm0,2.34h4.72v.68H49.81Z"/><path class="cls-2" d="M55.16,142.72h.92l.79,3.09q.09.39.16.75l.15.74h0l.18-.74c.06-.25.12-.49.19-.74l.83-3.09h.88l.84,3.09.19.75c.06.24.12.49.18.74h0c.06-.25.11-.5.17-.74s.11-.49.17-.75l.78-3.09h.86l-1.43,5.35H60l-.77-2.87q-.1-.39-.18-.76t-.18-.78h0l-.18.79q-.09.38-.2.76l-.75,2.86H56.65Z"/><path class="cls-2" d="M63.26,145.41a3.22,3.22,0,0,1,.2-1.18,2.76,2.76,0,0,1,.54-.89,2.34,2.34,0,0,1,.76-.55,2.15,2.15,0,0,1,.89-.19,2.24,2.24,0,0,1,.91.18,1.77,1.77,0,0,1,.67.51,2.31,2.31,0,0,1,.41.79,3.47,3.47,0,0,1,.14,1,3,3,0,0,1,0,.5H64.15a2.12,2.12,0,0,0,.53,1.38,1.64,1.64,0,0,0,1.25.51,2.1,2.1,0,0,0,.71-.12,3.14,3.14,0,0,0,.62-.3l.32.59a4.54,4.54,0,0,1-.78.38,2.7,2.7,0,0,1-1,.17,2.63,2.63,0,0,1-1-.19,2.39,2.39,0,0,1-.81-.55,2.55,2.55,0,0,1-.54-.87A3.27,3.27,0,0,1,63.26,145.41ZM67,145a2,2,0,0,0-.35-1.26,1.17,1.17,0,0,0-1-.43,1.31,1.31,0,0,0-.54.12,1.49,1.49,0,0,0-.47.33,1.75,1.75,0,0,0-.35.53,2.44,2.44,0,0,0-.18.72Z"/><path class="cls-2" d="M69.11,140.24H70v2.13l0,1a3.76,3.76,0,0,1,.79-.53,2,2,0,0,1,.88-.21,2.06,2.06,0,0,1,.91.19,1.82,1.82,0,0,1,.67.55,2.52,2.52,0,0,1,.41.86,4.21,4.21,0,0,1,.14,1.12,3.7,3.7,0,0,1-.19,1.22,2.79,2.79,0,0,1-.51.91,2.14,2.14,0,0,1-.74.57,2.09,2.09,0,0,1-.88.19,2,2,0,0,1-.78-.17,2.69,2.69,0,0,1-.75-.49h0l-.08.53h-.73Zm.9,6.64a2.23,2.23,0,0,0,.7.43,1.79,1.79,0,0,0,.61.13,1.29,1.29,0,0,0,.61-.15,1.46,1.46,0,0,0,.48-.42,2,2,0,0,0,.32-.67,3.17,3.17,0,0,0,.12-.89,3.92,3.92,0,0,0-.08-.8,1.82,1.82,0,0,0-.25-.62,1.2,1.2,0,0,0-.44-.4,1.37,1.37,0,0,0-.64-.14,2.22,2.22,0,0,0-1.43.73Z"/><path class="cls-2" d="M74.72,149.41a1.87,1.87,0,0,0,.73-.55,1.26,1.26,0,0,0,.26-.79H75.6a.69.69,0,0,1-.46-.16.57.57,0,0,1-.19-.47.59.59,0,0,1,.2-.47.7.7,0,0,1,.47-.17.65.65,0,0,1,.56.29,1.32,1.32,0,0,1,.2.78,2,2,0,0,1-.38,1.24,2.47,2.47,0,0,1-1.06.81Z"/><path class="cls-2" d="M79.67,145.41a3.22,3.22,0,0,1,.2-1.18,2.76,2.76,0,0,1,.54-.89,2.34,2.34,0,0,1,.76-.55,2.15,2.15,0,0,1,.89-.19,2.24,2.24,0,0,1,.91.18,1.77,1.77,0,0,1,.67.51,2.31,2.31,0,0,1,.41.79,3.47,3.47,0,0,1,.14,1,3,3,0,0,1,0,.5H80.56A2.12,2.12,0,0,0,81.1,147a1.64,1.64,0,0,0,1.25.51,2.1,2.1,0,0,0,.71-.12,3.14,3.14,0,0,0,.62-.3l.32.59a4.54,4.54,0,0,1-.78.38,2.7,2.7,0,0,1-1,.17,2.63,2.63,0,0,1-1-.19,2.39,2.39,0,0,1-.81-.55,2.55,2.55,0,0,1-.54-.87A3.27,3.27,0,0,1,79.67,145.41Zm3.74-.41a2,2,0,0,0-.35-1.26,1.17,1.17,0,0,0-1-.43,1.31,1.31,0,0,0-.54.12,1.49,1.49,0,0,0-.47.33,1.75,1.75,0,0,0-.35.53,2.44,2.44,0,0,0-.18.72Z"/><path class="cls-2" d="M85.52,142.72h.75l.08.77h0a4.38,4.38,0,0,1,.81-.64,1.85,1.85,0,0,1,1-.26,1.44,1.44,0,0,1,1.24.53,2.61,2.61,0,0,1,.39,1.56v3.39h-.9V144.8a1.91,1.91,0,0,0-.24-1.09.89.89,0,0,0-.77-.34,1.32,1.32,0,0,0-.74.21,4.79,4.79,0,0,0-.73.62v3.87h-.9Z"/><path class="cls-2" d="M90.77,142.72h.94l1,3,.25.79.25.78h0l.24-.78.24-.79,1-3h.89l-1.89,5.35H92.7Z"/><path class="cls-2" d="M96.15,142.92h4.72v.68H96.15Zm0,2.34h4.72v.68H96.15Z"/><path class="cls-2" d="M103,148.52v1.8h-.9v-7.6h.75l.08.62h0a4.06,4.06,0,0,1,.8-.53,2,2,0,0,1,.91-.22,2.06,2.06,0,0,1,.91.19,1.77,1.77,0,0,1,.66.55,2.59,2.59,0,0,1,.4.86,4.26,4.26,0,0,1,.14,1.13,3.65,3.65,0,0,1-.19,1.22,2.8,2.8,0,0,1-.51.91,2.14,2.14,0,0,1-.74.57,2.09,2.09,0,0,1-.88.19,1.8,1.8,0,0,1-.74-.17,3.67,3.67,0,0,1-.74-.45Zm0-1.64a2.38,2.38,0,0,0,.7.43,1.76,1.76,0,0,0,.61.13,1.29,1.29,0,0,0,.61-.15,1.46,1.46,0,0,0,.48-.42,2,2,0,0,0,.32-.67,3.17,3.17,0,0,0,.12-.89,3.92,3.92,0,0,0-.08-.8,1.82,1.82,0,0,0-.25-.62,1.2,1.2,0,0,0-.44-.4,1.37,1.37,0,0,0-.64-.14,1.44,1.44,0,0,0-.69.19,4.06,4.06,0,0,0-.74.54Z"/><path class="cls-2" d="M108.25,142.72H109l.08,1h0a2.47,2.47,0,0,1,.67-.8,1.37,1.37,0,0,1,.85-.3,1.42,1.42,0,0,1,.57.11l-.18.79-.24-.07-.27,0a1.2,1.2,0,0,0-.71.28,2.19,2.19,0,0,0-.64,1v3.43h-.9Z"/><path class="cls-2" d="M111.56,145.41a3.25,3.25,0,0,1,.2-1.19,2.7,2.7,0,0,1,.54-.89,2.28,2.28,0,0,1,.79-.55,2.47,2.47,0,0,1,1.88,0,2.28,2.28,0,0,1,.79.55,2.71,2.71,0,0,1,.54.89,3.29,3.29,0,0,1,.2,1.19,3.26,3.26,0,0,1-.2,1.18,2.65,2.65,0,0,1-.54.88,2.32,2.32,0,0,1-.79.54,2.47,2.47,0,0,1-1.88,0,2.32,2.32,0,0,1-.79-.54,2.63,2.63,0,0,1-.54-.88A3.22,3.22,0,0,1,111.56,145.41Zm.94,0a3,3,0,0,0,.11.84,2,2,0,0,0,.31.64,1.44,1.44,0,0,0,.49.42,1.4,1.4,0,0,0,1.25,0,1.44,1.44,0,0,0,.49-.42,2,2,0,0,0,.31-.64,3,3,0,0,0,.11-.84,3,3,0,0,0-.11-.84,2,2,0,0,0-.31-.65,1.42,1.42,0,0,0-.49-.42,1.39,1.39,0,0,0-1.25,0,1.42,1.42,0,0,0-.49.42,2,2,0,0,0-.31.65A3,3,0,0,0,112.5,145.41Z"/><path class="cls-2" d="M117.53,145.41a3.36,3.36,0,0,1,.19-1.17,2.77,2.77,0,0,1,.51-.88,2.27,2.27,0,0,1,.74-.56,2,2,0,0,1,.88-.2,1.83,1.83,0,0,1,.8.16,3.6,3.6,0,0,1,.69.45l0-.91v-2.06h.91v7.83h-.75l-.08-.63h0a3.39,3.39,0,0,1-.73.53,1.82,1.82,0,0,1-.89.23,2,2,0,0,1-1.61-.73A3.17,3.17,0,0,1,117.53,145.41Zm.94,0a2.56,2.56,0,0,0,.38,1.51,1.26,1.26,0,0,0,1.09.54,1.44,1.44,0,0,0,.7-.18,2.52,2.52,0,0,0,.66-.56v-2.79a2.29,2.29,0,0,0-.65-.43,1.71,1.71,0,0,0-.64-.13,1.25,1.25,0,0,0-.6.15,1.5,1.5,0,0,0-.49.42,2.07,2.07,0,0,0-.33.64A2.69,2.69,0,0,0,118.47,145.4Z"/><path class="cls-2" d="M26.91,150.64a.7.7,0,0,1-.5-.21l-1.92-1.91a3.93,3.93,0,1,1,1-1l1.92,1.92a.71.71,0,0,1-.51,1.22Zm-4.65-7.86a2.5,2.5,0,1,0,2.5,2.5A2.5,2.5,0,0,0,22.27,142.77Z"/><rect class="cls-1" x="187.27" y="112.29" width="77.58" height="61.51" rx="3" ry="3"/><path class="cls-2" d="M216.59,122.56h2.64a5.56,5.56,0,0,1,1.19.12,2.5,2.5,0,0,1,.94.41,2,2,0,0,1,.62.75,3,3,0,0,1,0,2.27,2.21,2.21,0,0,1-.63.8,2.63,2.63,0,0,1-.95.47,4.43,4.43,0,0,1-1.18.15H218v2.88h-1.39Zm2.53,3.85q1.73,0,1.73-1.43a1.13,1.13,0,0,0-.43-1,2.4,2.4,0,0,0-1.3-.28H218v2.74Z"/><path class="cls-2" d="M222.92,127.47a3.54,3.54,0,0,1,.23-1.31,2.88,2.88,0,0,1,.62-1,2.72,2.72,0,0,1,2-.82,2.77,2.77,0,0,1,1.06.21,2.63,2.63,0,0,1,.89.61,3,3,0,0,1,.62,1,3.78,3.78,0,0,1,0,2.62,3,3,0,0,1-.62,1,2.57,2.57,0,0,1-.89.6,2.83,2.83,0,0,1-1.06.2,2.79,2.79,0,0,1-1.06-.2,2.64,2.64,0,0,1-.89-.6,2.88,2.88,0,0,1-.62-1A3.55,3.55,0,0,1,222.92,127.47Zm1.42,0a2.47,2.47,0,0,0,.37,1.42,1.16,1.16,0,0,0,1,.53,1.18,1.18,0,0,0,1-.53,2.93,2.93,0,0,0,0-2.86,1.18,1.18,0,0,0-1-.53,1.16,1.16,0,0,0-1,.53A2.5,2.5,0,0,0,224.34,127.47Z"/><path class="cls-2" d="M229.54,127.47a3.78,3.78,0,0,1,.21-1.3,3,3,0,0,1,.56-1,2.5,2.5,0,0,1,.8-.61,2.13,2.13,0,0,1,.93-.22,1.91,1.91,0,0,1,.85.17,3.41,3.41,0,0,1,.7.47l0-.95v-2.14h1.38v8.47h-1.14l-.1-.64h0a3.15,3.15,0,0,1-.76.55,1.92,1.92,0,0,1-.91.23,2.15,2.15,0,0,1-1.77-.81A3.53,3.53,0,0,1,229.54,127.47Zm1.43,0a2.57,2.57,0,0,0,.34,1.46,1.13,1.13,0,0,0,1,.5,1.64,1.64,0,0,0,1.24-.66V126a2,2,0,0,0-.61-.38,1.71,1.71,0,0,0-.59-.11,1.2,1.2,0,0,0-1,.5A2.29,2.29,0,0,0,231,127.46Z"/><path class="cls-2" d="M205.23,147a1.48,1.48,0,0,1,.79-1.35,6.49,6.49,0,0,1,2.5-.65,2.52,2.52,0,0,0,0-.5,1.17,1.17,0,0,0-.18-.43,1,1,0,0,0-.33-.3,1.11,1.11,0,0,0-.54-.12,2.16,2.16,0,0,0-.87.18,4.29,4.29,0,0,0-.72.4l-.36-.63a5.84,5.84,0,0,1,.91-.47,3.06,3.06,0,0,1,1.19-.22,1.64,1.64,0,0,1,1.42.6,2.64,2.64,0,0,1,.44,1.6v3.28h-.75l-.08-.64h0a4.44,4.44,0,0,1-.83.54,2.05,2.05,0,0,1-.94.23,1.63,1.63,0,0,1-1.13-.4A1.42,1.42,0,0,1,205.23,147Zm.89-.07a.76.76,0,0,0,.27.66,1.09,1.09,0,0,0,.67.2,1.55,1.55,0,0,0,.73-.18,3.56,3.56,0,0,0,.73-.53v-1.49a9.27,9.27,0,0,0-1.13.21,3,3,0,0,0-.74.29,1.05,1.05,0,0,0-.4.38A.93.93,0,0,0,206.12,147Z"/><path class="cls-2" d="M212,148.86v1.8h-.9v-7.6h.75l.08.62h0a4.06,4.06,0,0,1,.8-.53,2,2,0,0,1,.91-.22,2.06,2.06,0,0,1,.91.19,1.77,1.77,0,0,1,.66.55,2.59,2.59,0,0,1,.4.86,4.26,4.26,0,0,1,.14,1.13,3.65,3.65,0,0,1-.19,1.22,2.8,2.8,0,0,1-.51.91,2.14,2.14,0,0,1-.74.57,2.09,2.09,0,0,1-.88.19,1.8,1.8,0,0,1-.74-.17,3.67,3.67,0,0,1-.74-.45Zm0-1.64a2.38,2.38,0,0,0,.7.43,1.76,1.76,0,0,0,.61.13,1.29,1.29,0,0,0,.61-.15,1.46,1.46,0,0,0,.48-.42,2,2,0,0,0,.32-.67,3.17,3.17,0,0,0,.12-.89,3.92,3.92,0,0,0-.08-.8,1.82,1.82,0,0,0-.25-.62,1.2,1.2,0,0,0-.44-.4,1.37,1.37,0,0,0-.64-.14,1.44,1.44,0,0,0-.69.19,4.06,4.06,0,0,0-.74.54Z"/><path class="cls-2" d="M218.13,148.86v1.8h-.9v-7.6H218l.08.62h0a4.06,4.06,0,0,1,.8-.53,2,2,0,0,1,.91-.22,2.06,2.06,0,0,1,.91.19,1.77,1.77,0,0,1,.66.55,2.59,2.59,0,0,1,.4.86,4.26,4.26,0,0,1,.14,1.13,3.65,3.65,0,0,1-.19,1.22,2.8,2.8,0,0,1-.51.91,2.14,2.14,0,0,1-.74.57,2.09,2.09,0,0,1-.88.19,1.8,1.8,0,0,1-.74-.17,3.67,3.67,0,0,1-.74-.45Zm0-1.64a2.38,2.38,0,0,0,.7.43,1.76,1.76,0,0,0,.61.13,1.29,1.29,0,0,0,.61-.15,1.46,1.46,0,0,0,.48-.42,2,2,0,0,0,.32-.67,3.17,3.17,0,0,0,.12-.89,3.92,3.92,0,0,0-.08-.8,1.82,1.82,0,0,0-.25-.62,1.2,1.2,0,0,0-.44-.4,1.37,1.37,0,0,0-.64-.14,1.44,1.44,0,0,0-.69.19,4.06,4.06,0,0,0-.74.54Z"/><path class="cls-2" d="M222.81,143.26h4.72v.68h-4.72Zm0,2.34h4.72v.68h-4.72Z"/><path class="cls-2" d="M228.16,143.06h.92l.79,3.09q.09.39.16.75l.15.74h0l.18-.74c.06-.25.12-.49.19-.74l.83-3.09h.88l.84,3.09.19.75c.06.24.12.49.18.74h0c.06-.25.11-.5.17-.74s.11-.49.17-.75l.78-3.09h.86l-1.43,5.35H233l-.77-2.87q-.1-.39-.18-.76t-.18-.78h0l-.18.79q-.09.38-.2.76l-.75,2.86h-1.06Z"/><path class="cls-2" d="M236.26,145.75a3.22,3.22,0,0,1,.2-1.18,2.76,2.76,0,0,1,.54-.89,2.34,2.34,0,0,1,.76-.55,2.15,2.15,0,0,1,.89-.19,2.24,2.24,0,0,1,.91.18,1.77,1.77,0,0,1,.67.51,2.31,2.31,0,0,1,.41.79,3.47,3.47,0,0,1,.14,1,3,3,0,0,1,0,.5h-3.61a2.12,2.12,0,0,0,.53,1.38,1.64,1.64,0,0,0,1.25.51,2.1,2.1,0,0,0,.71-.12,3.14,3.14,0,0,0,.62-.3l.32.59a4.54,4.54,0,0,1-.78.38,2.7,2.7,0,0,1-1,.17,2.63,2.63,0,0,1-1-.19,2.39,2.39,0,0,1-.81-.55,2.55,2.55,0,0,1-.54-.87A3.27,3.27,0,0,1,236.26,145.75Zm3.74-.41a2,2,0,0,0-.35-1.26,1.17,1.17,0,0,0-1-.43,1.31,1.31,0,0,0-.54.12,1.49,1.49,0,0,0-.47.33,1.75,1.75,0,0,0-.35.53,2.44,2.44,0,0,0-.18.72Z"/><path class="cls-2" d="M242.11,140.58h.9v2.13l0,1a3.76,3.76,0,0,1,.79-.53,2,2,0,0,1,.88-.21,2.06,2.06,0,0,1,.91.19,1.82,1.82,0,0,1,.67.55,2.52,2.52,0,0,1,.41.86,4.21,4.21,0,0,1,.14,1.12,3.7,3.7,0,0,1-.19,1.22,2.79,2.79,0,0,1-.51.91,2.14,2.14,0,0,1-.74.57,2.09,2.09,0,0,1-.88.19,2,2,0,0,1-.78-.17,2.69,2.69,0,0,1-.75-.49h0l-.08.53h-.73Zm.9,6.64a2.23,2.23,0,0,0,.7.43,1.79,1.79,0,0,0,.61.13,1.29,1.29,0,0,0,.61-.15,1.46,1.46,0,0,0,.48-.42,2,2,0,0,0,.32-.67,3.17,3.17,0,0,0,.12-.89,3.92,3.92,0,0,0-.08-.8,1.82,1.82,0,0,0-.25-.62,1.2,1.2,0,0,0-.44-.4,1.37,1.37,0,0,0-.64-.14,2.22,2.22,0,0,0-1.43.73Z"/><path class="cls-2" d="M205.1,158.95a3.22,3.22,0,0,1,.2-1.18,2.76,2.76,0,0,1,.54-.89,2.34,2.34,0,0,1,.76-.55,2.15,2.15,0,0,1,.89-.19,2.24,2.24,0,0,1,.91.18,1.77,1.77,0,0,1,.67.51,2.31,2.31,0,0,1,.41.79,3.47,3.47,0,0,1,.14,1,3,3,0,0,1,0,.5H206a2.12,2.12,0,0,0,.53,1.38,1.64,1.64,0,0,0,1.25.51,2.1,2.1,0,0,0,.71-.12,3.14,3.14,0,0,0,.62-.3l.32.59a4.54,4.54,0,0,1-.78.38,2.7,2.7,0,0,1-1,.17,2.63,2.63,0,0,1-1-.19,2.39,2.39,0,0,1-.81-.55,2.55,2.55,0,0,1-.54-.87A3.27,3.27,0,0,1,205.1,158.95Zm3.74-.41a2,2,0,0,0-.35-1.26,1.17,1.17,0,0,0-1-.43,1.31,1.31,0,0,0-.54.12,1.49,1.49,0,0,0-.47.33,1.75,1.75,0,0,0-.35.53,2.44,2.44,0,0,0-.18.72Z"/><path class="cls-2" d="M211,156.26h.75l.08.77h0a4.38,4.38,0,0,1,.81-.64,1.85,1.85,0,0,1,1-.26,1.44,1.44,0,0,1,1.24.53,2.61,2.61,0,0,1,.39,1.56v3.39h-.9v-3.27a1.91,1.91,0,0,0-.24-1.09.89.89,0,0,0-.77-.34,1.32,1.32,0,0,0-.74.21,4.79,4.79,0,0,0-.73.62v3.87H211Z"/><path class="cls-2" d="M216.2,156.26h.94l1,3,.25.79.25.78h0l.24-.78.24-.79,1-3h.89l-1.89,5.35h-1.06Z"/><path class="cls-2" d="M221.58,156.46h4.72v.68h-4.72Zm0,2.34h4.72v.68h-4.72Z"/><path class="cls-2" d="M228.47,162.06v1.8h-.9v-7.6h.75l.08.62h0a4.06,4.06,0,0,1,.8-.53,2,2,0,0,1,.91-.22,2.06,2.06,0,0,1,.91.19,1.77,1.77,0,0,1,.66.55,2.59,2.59,0,0,1,.4.86,4.26,4.26,0,0,1,.14,1.13,3.65,3.65,0,0,1-.19,1.22,2.8,2.8,0,0,1-.51.91,2.14,2.14,0,0,1-.74.57,2.09,2.09,0,0,1-.88.19,1.8,1.8,0,0,1-.74-.17,3.67,3.67,0,0,1-.74-.45Zm0-1.64a2.38,2.38,0,0,0,.7.43,1.76,1.76,0,0,0,.61.13,1.29,1.29,0,0,0,.61-.15,1.46,1.46,0,0,0,.48-.42,2,2,0,0,0,.32-.67,3.17,3.17,0,0,0,.12-.89,3.92,3.92,0,0,0-.08-.8,1.82,1.82,0,0,0-.25-.62,1.2,1.2,0,0,0-.44-.4,1.37,1.37,0,0,0-.64-.14,1.44,1.44,0,0,0-.69.19,4.06,4.06,0,0,0-.74.54Z"/><path class="cls-2" d="M233.68,156.26h.75l.08,1h0a2.47,2.47,0,0,1,.67-.8,1.37,1.37,0,0,1,.85-.3,1.42,1.42,0,0,1,.57.11l-.18.79-.24-.07-.27,0a1.2,1.2,0,0,0-.71.28,2.19,2.19,0,0,0-.64,1v3.43h-.9Z"/><path class="cls-2" d="M237,158.95a3.25,3.25,0,0,1,.2-1.19,2.7,2.7,0,0,1,.54-.89,2.28,2.28,0,0,1,.79-.55,2.47,2.47,0,0,1,1.88,0,2.28,2.28,0,0,1,.79.55,2.71,2.71,0,0,1,.54.89,3.29,3.29,0,0,1,.2,1.19,3.26,3.26,0,0,1-.2,1.18,2.65,2.65,0,0,1-.54.88,2.32,2.32,0,0,1-.79.54,2.47,2.47,0,0,1-1.88,0,2.32,2.32,0,0,1-.79-.54,2.63,2.63,0,0,1-.54-.88A3.22,3.22,0,0,1,237,158.95Zm.94,0a3,3,0,0,0,.11.84,2,2,0,0,0,.31.64,1.44,1.44,0,0,0,.49.42,1.4,1.4,0,0,0,1.25,0,1.44,1.44,0,0,0,.49-.42,2,2,0,0,0,.31-.64,3,3,0,0,0,.11-.84,3,3,0,0,0-.11-.84,2,2,0,0,0-.31-.65,1.42,1.42,0,0,0-.49-.42,1.39,1.39,0,0,0-1.25,0,1.42,1.42,0,0,0-.49.42,2,2,0,0,0-.31.65A3,3,0,0,0,237.92,158.95Z"/><path class="cls-2" d="M243,158.95a3.36,3.36,0,0,1,.19-1.17,2.77,2.77,0,0,1,.51-.88,2.27,2.27,0,0,1,.74-.56,2,2,0,0,1,.88-.2,1.83,1.83,0,0,1,.8.16,3.6,3.6,0,0,1,.69.45l0-.91v-2.06h.91v7.83h-.75l-.08-.63h0a3.39,3.39,0,0,1-.73.53,1.82,1.82,0,0,1-.89.23,2,2,0,0,1-1.61-.73A3.17,3.17,0,0,1,243,158.95Zm.94,0a2.56,2.56,0,0,0,.38,1.51,1.26,1.26,0,0,0,1.09.54,1.44,1.44,0,0,0,.7-.18,2.52,2.52,0,0,0,.66-.56v-2.79a2.29,2.29,0,0,0-.65-.43,1.71,1.71,0,0,0-.64-.13,1.25,1.25,0,0,0-.6.15,1.5,1.5,0,0,0-.49.42,2.07,2.07,0,0,0-.33.64A2.69,2.69,0,0,0,243.89,158.94Z"/><path class="cls-2" d="M211,190.06a3.76,3.76,0,0,1,.25-1.38,3.59,3.59,0,0,1,.66-1.09,3.09,3.09,0,0,1,1-.73,2.52,2.52,0,0,1,1.12-.26,1.63,1.63,0,0,1,.81.19,2.22,2.22,0,0,1,.57.46l-.5.53a1.52,1.52,0,0,0-.42-.37,1.09,1.09,0,0,0-.53-.12,1.5,1.5,0,0,0-.77.22,2.41,2.41,0,0,0-.67.59,2.9,2.9,0,0,0-.46.86,3.17,3.17,0,0,0-.17,1,1.72,1.72,0,0,0,.31,1.11,1.15,1.15,0,0,0,1,.38,1.44,1.44,0,0,0,.64-.14,3.54,3.54,0,0,0,.54-.33l.37.55a4.08,4.08,0,0,1-.7.42,2.29,2.29,0,0,1-1,.2,1.9,1.9,0,0,1-1.42-.56A2.18,2.18,0,0,1,211,190.06Z"/><path class="cls-2" d="M217.54,192.2a1.77,1.77,0,0,1-1.39-.57,2.26,2.26,0,0,1-.52-1.57,3.92,3.92,0,0,1,.24-1.4,3.48,3.48,0,0,1,.65-1.09,3.08,3.08,0,0,1,.92-.71,2.36,2.36,0,0,1,1.07-.26,1.79,1.79,0,0,1,1.39.57,2.25,2.25,0,0,1,.52,1.57,3.83,3.83,0,0,1-.25,1.4,3.62,3.62,0,0,1-.65,1.09,3,3,0,0,1-.92.71A2.39,2.39,0,0,1,217.54,192.2Zm.89-4.92a1.36,1.36,0,0,0-.71.21,2.23,2.23,0,0,0-.63.58,3,3,0,0,0-.44.86,3.31,3.31,0,0,0-.17,1.06,1.82,1.82,0,0,0,.29,1.11,1,1,0,0,0,.85.38,1.36,1.36,0,0,0,.72-.21,2.32,2.32,0,0,0,.62-.58,3,3,0,0,0,.44-.86,3.34,3.34,0,0,0,.17-1.06,1.84,1.84,0,0,0-.29-1.12A1,1,0,0,0,218.43,187.28Z"/><path class="cls-2" d="M225.25,192.07h-.69l.09-.81h0a6.65,6.65,0,0,1-.9.67,1.79,1.79,0,0,1-1,.28,1.19,1.19,0,0,1-1-.36,1.5,1.5,0,0,1-.29-1,3.33,3.33,0,0,1,0-.35,2.63,2.63,0,0,1,.07-.38l.68-3.41h.85l-.67,3.3c0,.15-.05.26-.07.35a1.67,1.67,0,0,0,0,.28.9.9,0,0,0,.19.62.78.78,0,0,0,.6.21,1.39,1.39,0,0,0,.7-.23,4.64,4.64,0,0,0,.88-.74l.76-3.78h.84Z"/><path class="cls-2" d="M228.08,186.72h.69l-.08.8h0a6.82,6.82,0,0,1,.91-.67,1.85,1.85,0,0,1,1-.27,1.2,1.2,0,0,1,1,.35,1.49,1.49,0,0,1,.29,1c0,.13,0,.24,0,.35a2.78,2.78,0,0,1-.07.38l-.68,3.41h-.84l.66-3.3c0-.15.05-.26.07-.35a1.67,1.67,0,0,0,0-.27.9.9,0,0,0-.19-.62.78.78,0,0,0-.61-.21,1.43,1.43,0,0,0-.71.23,4.87,4.87,0,0,0-.9.74l-.76,3.78H227Z"/><path class="cls-2" d="M233.9,187.4h-.78l.12-.63.84-.05.4-1.47h.71l-.3,1.47h1.35l-.13.68h-1.37l-.63,3.06a2.37,2.37,0,0,0,0,.4.72.72,0,0,0,.15.5.7.7,0,0,0,.53.17.81.81,0,0,0,.3-.06l.26-.11.19.6a3.14,3.14,0,0,1-.44.17,2,2,0,0,1-.57.08,1.65,1.65,0,0,1-.59-.09,1.07,1.07,0,0,1-.4-.25.91.91,0,0,1-.22-.37,1.58,1.58,0,0,1-.07-.47,2.61,2.61,0,0,1,0-.3c0-.09,0-.19,0-.29Z"/><path class="cls-2" d="M236.56,187.58V187h4.51v.63Zm0,2.33v-.63h4.51v.63Z"/><path class="cls-2" d="M241.74,191.36h1.53l1.06-5.26h-1.24l.11-.55a4,4,0,0,0,1.54-.51h.65l-1.28,6.31h1.43l-.13.7H241.6Z"/><path class="cls-2" d="M55.59,186.33l.42-2.09h.85l-1.58,7.83h-.69l.09-.79h0a3.2,3.2,0,0,1-.87.67,2.11,2.11,0,0,1-1,.25,1.4,1.4,0,0,1-1.12-.5,2.18,2.18,0,0,1-.42-1.44,4.22,4.22,0,0,1,.24-1.44,3.9,3.9,0,0,1,.65-1.17,3.2,3.2,0,0,1,.92-.78,2.2,2.2,0,0,1,1.08-.29,1.31,1.31,0,0,1,.75.21,1.65,1.65,0,0,1,.52.57h0Zm-2.52,5.17a1.69,1.69,0,0,0,.85-.25,3,3,0,0,0,.84-.78l.48-2.39a1.73,1.73,0,0,0-.51-.6,1,1,0,0,0-.58-.19,1.42,1.42,0,0,0-.77.24,2.39,2.39,0,0,0-.66.63,3.43,3.43,0,0,0-.63,2,1.65,1.65,0,0,0,.26,1A.86.86,0,0,0,53.07,191.5Z"/><path class="cls-2" d="M57.09,190a3.62,3.62,0,0,1,.91-2.45,2.9,2.9,0,0,1,.91-.69,2.41,2.41,0,0,1,1-.24,1.77,1.77,0,0,1,.76.15,1.37,1.37,0,0,1,.51.41,1.65,1.65,0,0,1,.29.62,3.19,3.19,0,0,1,.09.76,2.69,2.69,0,0,1-.07.61,4.34,4.34,0,0,1-.12.44H57.93a2.35,2.35,0,0,0,0,.89,1.45,1.45,0,0,0,.29.61,1.18,1.18,0,0,0,.5.35,1.84,1.84,0,0,0,.65.11,1.56,1.56,0,0,0,.63-.14,2.92,2.92,0,0,0,.57-.32l.33.56a3.37,3.37,0,0,1-.76.4,2.66,2.66,0,0,1-1,.17,2.06,2.06,0,0,1-1.53-.58A2.25,2.25,0,0,1,57.09,190Zm3.74-1c0-.09,0-.18,0-.26a2.37,2.37,0,0,0,0-.29,1.81,1.81,0,0,0-.05-.45,1.1,1.1,0,0,0-.18-.38.87.87,0,0,0-.32-.26,1.07,1.07,0,0,0-.48-.1,1.43,1.43,0,0,0-.58.12,1.75,1.75,0,0,0-.52.35A2.63,2.63,0,0,0,58,189Z"/><path class="cls-2" d="M62.46,190.77a2.06,2.06,0,0,0,.6.57,1.46,1.46,0,0,0,.77.21,1.32,1.32,0,0,0,.8-.26.89.89,0,0,0,.25-.28.71.71,0,0,0,.09-.35.69.69,0,0,0,0-.26.77.77,0,0,0-.16-.24,1.56,1.56,0,0,0-.3-.24l-.47-.28a3.51,3.51,0,0,1-.92-.67,1.14,1.14,0,0,1-.3-.79,1.44,1.44,0,0,1,.15-.65,1.57,1.57,0,0,1,.4-.51,1.81,1.81,0,0,1,.58-.32,2.16,2.16,0,0,1,.71-.12,1.93,1.93,0,0,1,.89.2,2.44,2.44,0,0,1,.69.52l-.48.47a2.37,2.37,0,0,0-.48-.37,1.23,1.23,0,0,0-.63-.15,1.08,1.08,0,0,0-.72.25.75.75,0,0,0-.29.59.59.59,0,0,0,.08.3.93.93,0,0,0,.21.24,2,2,0,0,0,.3.21l.36.2a4.66,4.66,0,0,1,.6.38,2.36,2.36,0,0,1,.38.36,1.14,1.14,0,0,1,.21.37,1.32,1.32,0,0,1,.06.41,1.55,1.55,0,0,1-.15.68,1.48,1.48,0,0,1-.42.52,2,2,0,0,1-.64.33,2.65,2.65,0,0,1-.8.12,1.92,1.92,0,0,1-.53-.08,2.41,2.41,0,0,1-.52-.21,2.35,2.35,0,0,1-.45-.33,1.93,1.93,0,0,1-.33-.4Z"/><path class="cls-2" d="M67.8,186.72h.85l-1.08,5.35h-.84Zm.71-1.11a.59.59,0,0,1-.38-.13.44.44,0,0,1-.16-.37.6.6,0,0,1,.19-.46.63.63,0,0,1,.45-.18.58.58,0,0,1,.38.13.46.46,0,0,1,.16.37.58.58,0,0,1-.19.45A.64.64,0,0,1,68.52,185.61Z"/><path class="cls-2" d="M70.4,186.72h.69l-.12,1h0a3.3,3.3,0,0,1,.74-.83,1.46,1.46,0,0,1,.92-.33,1.26,1.26,0,0,1,.51.1l-.3.75a1,1,0,0,0-.46-.09,1.3,1.3,0,0,0-.81.34,3.11,3.11,0,0,0-.76,1l-.67,3.38h-.84Z"/><path class="cls-2" d="M73.06,190a3.62,3.62,0,0,1,.91-2.45,2.9,2.9,0,0,1,.91-.69,2.41,2.41,0,0,1,1-.24,1.77,1.77,0,0,1,.76.15,1.37,1.37,0,0,1,.51.41,1.65,1.65,0,0,1,.29.62,3.19,3.19,0,0,1,.09.76,2.69,2.69,0,0,1-.07.61,4.34,4.34,0,0,1-.12.44H73.91a2.35,2.35,0,0,0,0,.89,1.45,1.45,0,0,0,.29.61,1.18,1.18,0,0,0,.5.35,1.84,1.84,0,0,0,.65.11,1.56,1.56,0,0,0,.63-.14,2.92,2.92,0,0,0,.57-.32l.33.56a3.37,3.37,0,0,1-.76.4,2.66,2.66,0,0,1-1,.17,2.06,2.06,0,0,1-1.53-.58A2.25,2.25,0,0,1,73.06,190Zm3.74-1c0-.09,0-.18,0-.26a2.37,2.37,0,0,0,0-.29,1.81,1.81,0,0,0-.05-.45,1.1,1.1,0,0,0-.18-.38.87.87,0,0,0-.32-.26,1.07,1.07,0,0,0-.48-.1,1.43,1.43,0,0,0-.58.12,1.75,1.75,0,0,0-.52.35A2.63,2.63,0,0,0,74,189Z"/><path class="cls-2" d="M82.74,186.33l.42-2.09H84l-1.58,7.83h-.69l.09-.79h0a3.2,3.2,0,0,1-.87.67,2.11,2.11,0,0,1-1,.25,1.4,1.4,0,0,1-1.12-.5,2.18,2.18,0,0,1-.42-1.44,4.22,4.22,0,0,1,.24-1.44,3.9,3.9,0,0,1,.65-1.17,3.2,3.2,0,0,1,.92-.78,2.2,2.2,0,0,1,1.08-.29,1.31,1.31,0,0,1,.75.21,1.65,1.65,0,0,1,.52.57h0Zm-2.52,5.17a1.69,1.69,0,0,0,.85-.25,3,3,0,0,0,.84-.78l.48-2.39a1.73,1.73,0,0,0-.51-.6,1,1,0,0,0-.58-.19,1.42,1.42,0,0,0-.77.24,2.39,2.39,0,0,0-.66.63,3.43,3.43,0,0,0-.63,2,1.65,1.65,0,0,0,.26,1A.86.86,0,0,0,80.22,191.5Z"/><path class="cls-2" d="M84.36,187.58V187h4.51v.63Zm0,2.33v-.63h4.51v.63Z"/><path class="cls-2" d="M89.57,190.55a2.6,2.6,0,0,0,.65.66,1.59,1.59,0,0,0,1,.29,2.07,2.07,0,0,0,.69-.11,1.68,1.68,0,0,0,.54-.3,1.37,1.37,0,0,0,.35-.46,1.34,1.34,0,0,0,.13-.58,1.2,1.2,0,0,0-.11-.51,1.06,1.06,0,0,0-.35-.41,1.77,1.77,0,0,0-.63-.27,4.12,4.12,0,0,0-.95-.09l.13-.64a3.84,3.84,0,0,0,1.09-.13,2.18,2.18,0,0,0,.71-.34,1.22,1.22,0,0,0,.5-1,1.07,1.07,0,0,0-.28-.76,1.08,1.08,0,0,0-.84-.3,1.8,1.8,0,0,0-.69.15,2.94,2.94,0,0,0-.69.41l-.43-.56a3.15,3.15,0,0,1,1.94-.69,1.93,1.93,0,0,1,1.36.44,1.52,1.52,0,0,1,.47,1.17,1.82,1.82,0,0,1-.41,1.18,2.33,2.33,0,0,1-1.23.74v0a1.89,1.89,0,0,1,.91.58,1.45,1.45,0,0,1,.32.95,2.08,2.08,0,0,1-.19.91,2,2,0,0,1-.53.69,2.4,2.4,0,0,1-.81.44,3.26,3.26,0,0,1-1,.15,2.29,2.29,0,0,1-1.28-.36A3,3,0,0,1,89,191Z"/><line class="cls-3" x1="175.44" y1="143.05" x2="143.61" y2="143.05"/><path class="cls-4" d="M169.29,138.73a.45.45,0,0,0,.14.62l5.81,3.7-5.81,3.7a.45.45,0,1,0,.48.76l6.4-4.08a.45.45,0,0,0,0-.76l-6.4-4.08a.45.45,0,0,0-.62.14Z"/><path class="cls-4" d="M149.76,138.73a.45.45,0,0,1-.14.62l-5.81,3.7,5.81,3.7a.45.45,0,1,1-.48.76l-6.4-4.08a.45.45,0,0,1,0-.76l6.4-4.08a.45.45,0,0,1,.62.14Z"/><path class="cls-5" d="M146.33,59.64h-6.1c0-.2.1-.3.1-.5v-46a3.54,3.54,0,0,0-3.5-3.5H72.73a3.54,3.54,0,0,0-3.5,3.5v46a.9.9,0,0,0,.1.5H65.24c-3.4,0-3.4,0-3.4,3.5,0,1.6.76,6.5,5,6.5h75.5c2.23,0,5.59-1.28,5.9-4.86C148.67,59.64,148.67,59.64,146.33,59.64ZM72.23,16.27a3.63,3.63,0,0,1,3.63-3.62h58A3.39,3.39,0,0,1,137.23,16V56.92a2.72,2.72,0,0,1-2.72,2.72H75.4a3.17,3.17,0,0,1-3.17-3.17Zm70.2,51.38H67a2.71,2.71,0,0,1-2-.8c-1.14-1.23-1.28-4.46-1.3-5.05a.14.14,0,0,1,.14-.15H98.33a1.5,1.5,0,0,0,1.4,2h10a1.5,1.5,0,0,0,1.4-2h35.33a.26.26,0,0,1,.27.28C146.39,64.55,146.45,67.33,142.43,67.64Z"/><rect class="cls-6" x="74.23" y="14.64" width="61" height="43" rx="3" ry="3"/><path class="cls-7" d="M86.44,31.17H87.8v5.29h0L90,33.75h1.51l-2,2.4,2.22,3.49h-1.5l-1.51-2.56-.92,1.06v1.5H86.44Z"/><path class="cls-7" d="M92.45,33.75h1.38v3.52a1.83,1.83,0,0,0,.22,1,.8.8,0,0,0,.7.3,1.21,1.21,0,0,0,.68-.19,2.76,2.76,0,0,0,.63-.62v-4h1.38v5.89H96.3l-.11-.86h0a3.48,3.48,0,0,1-.83.73,2,2,0,0,1-1.06.28,1.58,1.58,0,0,1-1.38-.61,3,3,0,0,1-.43-1.73Z"/><path class="cls-7" d="M99.18,31.17h1.38v2.18l0,1a3.44,3.44,0,0,1,.81-.53,2.1,2.1,0,0,1,.89-.2,2.23,2.23,0,0,1,1,.21,2,2,0,0,1,.73.6,2.74,2.74,0,0,1,.46.94,4.53,4.53,0,0,1,.16,1.24,4,4,0,0,1-.21,1.35,3.13,3.13,0,0,1-.56,1,2.39,2.39,0,0,1-.8.62,2.18,2.18,0,0,1-.95.22,1.94,1.94,0,0,1-.82-.19,2.88,2.88,0,0,1-.79-.55h0l-.12.6H99.18Zm1.38,7a1.9,1.9,0,0,0,.62.38,1.73,1.73,0,0,0,.57.11,1.2,1.2,0,0,0,1-.51,2.44,2.44,0,0,0,.4-1.52,2.67,2.67,0,0,0-.3-1.38,1.05,1.05,0,0,0-1-.49,1.92,1.92,0,0,0-1.3.66Z"/><path class="cls-7" d="M105.57,36.7a3.51,3.51,0,0,1,.23-1.3,3,3,0,0,1,.61-1,2.7,2.7,0,0,1,.87-.61,2.49,2.49,0,0,1,1-.22,2.57,2.57,0,0,1,1.06.2,2.06,2.06,0,0,1,.76.58,2.56,2.56,0,0,1,.46.89,3.9,3.9,0,0,1,.16,1.13,2.78,2.78,0,0,1-.06.65h-3.74a1.94,1.94,0,0,0,.56,1.24,1.66,1.66,0,0,0,1.18.43,2.17,2.17,0,0,0,.71-.11,3.18,3.18,0,0,0,.65-.32l.47.86a4.21,4.21,0,0,1-.94.46,3.25,3.25,0,0,1-1.08.18,3,3,0,0,1-1.14-.21,2.71,2.71,0,0,1-.92-.61,2.77,2.77,0,0,1-.62-1A3.56,3.56,0,0,1,105.57,36.7Zm3.95-.53a1.83,1.83,0,0,0-.29-1.1,1.06,1.06,0,0,0-.91-.4,1.29,1.29,0,0,0-.92.38,1.81,1.81,0,0,0-.49,1.12Z"/><path class="cls-7" d="M111.65,36.7a3.37,3.37,0,0,1,.24-1.31,2.87,2.87,0,0,1,.65-1,2.82,2.82,0,0,1,.94-.61,3,3,0,0,1,1.12-.21,2.36,2.36,0,0,1,1,.2,2.65,2.65,0,0,1,.73.49l-.66.88a2.19,2.19,0,0,0-.48-.32,1.19,1.19,0,0,0-.52-.11,1.44,1.44,0,0,0-1.16.53,2.54,2.54,0,0,0,0,2.86,1.4,1.4,0,0,0,1.13.53,1.5,1.5,0,0,0,.67-.15,2.64,2.64,0,0,0,.55-.35l.58.88a3,3,0,0,1-.92.56,2.81,2.81,0,0,1-1,.19,3.06,3.06,0,0,1-1.12-.2,2.55,2.55,0,0,1-.91-.6,2.77,2.77,0,0,1-.6-1A3.72,3.72,0,0,1,111.65,36.7Z"/><path class="cls-7" d="M117.78,34.84h-.84v-1l.91-.06.17-1.61h1.15v1.61h1.5v1.09h-1.5v2.81q0,1,.83,1a1.44,1.44,0,0,0,.32,0,1.46,1.46,0,0,0,.29-.1l.24,1a4.51,4.51,0,0,1-.55.15,3.11,3.11,0,0,1-.65.07,2.17,2.17,0,0,1-.87-.16,1.48,1.48,0,0,1-.58-.44,1.81,1.81,0,0,1-.32-.67,3.47,3.47,0,0,1-.1-.87Z"/><path class="cls-7" d="M121.91,31.17h1.38v7a.52.52,0,0,0,.1.35.28.28,0,0,0,.2.1h.09l.13,0,.18,1a1.88,1.88,0,0,1-.73.12,1.17,1.17,0,0,1-1-.44,2.14,2.14,0,0,1-.3-1.21Z"/><polyline class="cls-8" points="63.35 95.89 71.23 104.14 71.23 69.14"/><line class="cls-8" x1="78.56" y1="95.89" x2="71.23" y2="104.14"/><path class="cls-7" d="M19.27,85.08a3.73,3.73,0,0,0,.79.49,2,2,0,0,0,.85.17,1.06,1.06,0,0,0,.71-.2.65.65,0,0,0,.23-.51.5.5,0,0,0-.11-.32,1.06,1.06,0,0,0-.29-.25,2.84,2.84,0,0,0-.41-.2l-.46-.19q-.29-.11-.59-.25a2.37,2.37,0,0,1-.53-.35,1.74,1.74,0,0,1-.38-.47,1.3,1.3,0,0,1-.15-.64,1.6,1.6,0,0,1,.58-1.27,2.34,2.34,0,0,1,1.57-.49,2.73,2.73,0,0,1,1.1.22,4.16,4.16,0,0,1,.85.49l-.64.84a3.31,3.31,0,0,0-.63-.37,1.64,1.64,0,0,0-.67-.14,1,1,0,0,0-.65.19.59.59,0,0,0-.21.46.47.47,0,0,0,.1.31.93.93,0,0,0,.27.22A2.67,2.67,0,0,0,21,83l.46.17c.2.07.4.15.6.25a2.46,2.46,0,0,1,.55.34,1.56,1.56,0,0,1,.4.5,1.53,1.53,0,0,1,.15.7,1.71,1.71,0,0,1-.15.71,1.66,1.66,0,0,1-.44.58,2.12,2.12,0,0,1-.72.39,3.12,3.12,0,0,1-1,.14,3.26,3.26,0,0,1-1.21-.23,3.89,3.89,0,0,1-1-.58Z"/><path class="cls-7" d="M24,83.7a3.37,3.37,0,0,1,.24-1.31,2.87,2.87,0,0,1,.65-1,2.82,2.82,0,0,1,.94-.61A3,3,0,0,1,27,80.61a2.36,2.36,0,0,1,1,.2,2.65,2.65,0,0,1,.73.49l-.66.88a2.19,2.19,0,0,0-.48-.32,1.19,1.19,0,0,0-.52-.11,1.44,1.44,0,0,0-1.16.53,2.54,2.54,0,0,0,0,2.86,1.4,1.4,0,0,0,1.13.53,1.5,1.5,0,0,0,.67-.15,2.64,2.64,0,0,0,.55-.35l.58.88a3,3,0,0,1-.92.56,2.81,2.81,0,0,1-1,.19,3.06,3.06,0,0,1-1.12-.2,2.55,2.55,0,0,1-.91-.6,2.77,2.77,0,0,1-.6-1A3.72,3.72,0,0,1,24,83.7Z"/><path class="cls-7" d="M29.55,85.06a1.63,1.63,0,0,1,.83-1.46A6.59,6.59,0,0,1,33,82.88a1.58,1.58,0,0,0-.06-.44,1.09,1.09,0,0,0-.19-.37.86.86,0,0,0-.32-.25,1.22,1.22,0,0,0-.5-.09,2.26,2.26,0,0,0-.86.17,5.16,5.16,0,0,0-.8.41l-.5-.92a5.92,5.92,0,0,1,1.1-.54,3.7,3.7,0,0,1,1.31-.23,2,2,0,0,1,1.66.65,2.9,2.9,0,0,1,.54,1.89v3.49H33.27L33.17,86h0a4.32,4.32,0,0,1-.85.56,2.13,2.13,0,0,1-1,.23A1.73,1.73,0,0,1,30,86.31,1.67,1.67,0,0,1,29.55,85.06ZM30.9,85a.68.68,0,0,0,.23.58,1,1,0,0,0,.61.18,1.34,1.34,0,0,0,.66-.17,3.12,3.12,0,0,0,.62-.48V83.74a6.25,6.25,0,0,0-1,.19,2.8,2.8,0,0,0-.65.27,1,1,0,0,0-.35.34A.82.82,0,0,0,30.9,85Z"/><path class="cls-7" d="M36.08,78.17h1.38v7a.52.52,0,0,0,.1.35.28.28,0,0,0,.2.1h.09l.13,0,.18,1a1.88,1.88,0,0,1-.73.12,1.17,1.17,0,0,1-1-.44,2.14,2.14,0,0,1-.3-1.21Z"/><path class="cls-7" d="M39,83.7a3.51,3.51,0,0,1,.23-1.3,3,3,0,0,1,.61-1,2.7,2.7,0,0,1,.87-.61,2.49,2.49,0,0,1,1-.22,2.57,2.57,0,0,1,1.06.2,2.06,2.06,0,0,1,.76.58,2.56,2.56,0,0,1,.46.89,3.9,3.9,0,0,1,.16,1.13,2.78,2.78,0,0,1-.06.65H40.29a1.94,1.94,0,0,0,.56,1.24,1.66,1.66,0,0,0,1.18.43,2.17,2.17,0,0,0,.71-.11,3.18,3.18,0,0,0,.65-.32l.47.86a4.21,4.21,0,0,1-.94.46,3.25,3.25,0,0,1-1.08.18,3,3,0,0,1-1.14-.21,2.71,2.71,0,0,1-.92-.61,2.77,2.77,0,0,1-.62-1A3.56,3.56,0,0,1,39,83.7Zm3.95-.53a1.83,1.83,0,0,0-.29-1.1,1.06,1.06,0,0,0-.91-.4,1.29,1.29,0,0,0-.92.38,1.81,1.81,0,0,0-.49,1.12Z"/><path class="cls-7" d="M47.82,80.75H49.2v3.52a1.83,1.83,0,0,0,.22,1,.8.8,0,0,0,.7.3,1.21,1.21,0,0,0,.68-.19,2.76,2.76,0,0,0,.63-.62v-4H52.8v5.89H51.67l-.11-.86h0a3.48,3.48,0,0,1-.83.73,2,2,0,0,1-1.06.28,1.58,1.58,0,0,1-1.38-.61,3,3,0,0,1-.43-1.73Z"/><path class="cls-7" d="M55.93,87.12V89H54.55V80.75h1.14l.1.62h0a4.17,4.17,0,0,1,.83-.54,2.09,2.09,0,0,1,.95-.23,2.19,2.19,0,0,1,1,.21,2,2,0,0,1,.73.61,2.81,2.81,0,0,1,.46.95,4.53,4.53,0,0,1,.16,1.24A4.05,4.05,0,0,1,59.72,85a3.06,3.06,0,0,1-.56,1,2.42,2.42,0,0,1-.8.62,2.18,2.18,0,0,1-.95.22,1.9,1.9,0,0,1-.77-.17,2.92,2.92,0,0,1-.74-.48Zm0-2a2.06,2.06,0,0,0,.62.38,1.68,1.68,0,0,0,.56.11,1.2,1.2,0,0,0,1-.51,2.44,2.44,0,0,0,.4-1.52,2.67,2.67,0,0,0-.3-1.38,1.05,1.05,0,0,0-1-.49,1.92,1.92,0,0,0-1.3.66Z"/><path class="cls-9" d="M224.4,10.93A7.56,7.56,0,1,0,232,18.49,7.57,7.57,0,0,0,224.4,10.93Zm2.84,9.49-.19,0c-.57.07-1.18.12-1.82.15l-.84,0-.84,0c-.64,0-1.25-.07-1.82-.15-.05-.43-.09-.87-.1-1.32q0-.31,0-.63t0-.63c0-.46.05-.9.1-1.32l0-.26c.37-2.7,1.4-4.65,2.62-4.65a6.87,6.87,0,0,1,6.87,6.87C231.27,19.35,229.62,20.09,227.24,20.42Z"/><path class="cls-9" d="M227.24,16.56a3.49,3.49,0,0,0-.22-.29,3.43,3.43,0,0,0-2.62-1.22c-.34,0-.64.52-.84,1.33a8.08,8.08,0,0,0-.18,1.09c0,.32,0,.66,0,1s0,.69,0,1c.32,0,.66,0,1,0s.69,0,1,0a6.31,6.31,0,0,0,1.74-.38c.43-.18.68-.4.68-.63A3.42,3.42,0,0,0,227.24,16.56Z"/><path class="cls-9" d="M239.09,14.77a2.84,2.84,0,0,1,2.06.92l-.71.8a1.85,1.85,0,0,0-1.34-.6c-1.19,0-2,1-2,2.62s.79,2.65,2,2.65a2,2,0,0,0,1.53-.72l.71.79A2.89,2.89,0,0,1,239,22.28c-1.84,0-3.29-1.33-3.29-3.73S237.23,14.77,239.09,14.77Z"/><path class="cls-9" d="M244.16,16.57a2.63,2.63,0,0,1,2.59,2.86,2.6,2.6,0,1,1-5.17,0A2.63,2.63,0,0,1,244.16,16.57Zm0,4.66c.8,0,1.28-.72,1.28-1.81s-.49-1.82-1.28-1.82-1.27.72-1.27,1.82S243.37,21.23,244.16,21.23Z"/><path class="cls-9" d="M247.18,16.71h1.05l.09,1h0a1.85,1.85,0,0,1,1.54-1.1,1.38,1.38,0,0,1,.62.11l-.22,1.11a1.78,1.78,0,0,0-.56-.09c-.43,0-1,.3-1.28,1.12v3.32h-1.27V16.71Z"/><path class="cls-9" d="M252.9,16.57c1.47,0,2.25,1.06,2.25,2.58a2.73,2.73,0,0,1-.06.6h-3.46a1.56,1.56,0,0,0,1.61,1.54,2.27,2.27,0,0,0,1.26-.4l.43.8a3.43,3.43,0,0,1-1.86.59,2.62,2.62,0,0,1-2.68-2.85A2.65,2.65,0,0,1,252.9,16.57ZM254,18.94c0-.86-.37-1.38-1.11-1.38s-1.2.48-1.31,1.38Z"/><path class="cls-9" d="M257.09,18.47c0-2.3,1.25-3.75,3-3.75s3,1.45,3,3.75-1.25,3.81-3,3.81S257.09,20.78,257.09,18.47Zm5.48,0c0-2-1-3.29-2.47-3.29s-2.48,1.27-2.48,3.29,1,3.34,2.48,3.34S262.57,20.49,262.57,18.47Z"/><path class="cls-9" d="M264.07,20.83a2.88,2.88,0,0,0,2.15,1c1.11,0,1.82-.6,1.82-1.46s-.6-1.21-1.32-1.53l-1.11-.5a2,2,0,0,1-1.47-1.82,1.91,1.91,0,0,1,2.12-1.79,2.78,2.78,0,0,1,2,.88l-.3.34a2.31,2.31,0,0,0-1.74-.75c-1,0-1.61.51-1.61,1.31s.73,1.16,1.26,1.41l1.11.49c.81.37,1.53.82,1.53,1.94a2.08,2.08,0,0,1-2.34,2,3.22,3.22,0,0,1-2.46-1.1Z"/></svg>